<svg width="64" height="64" viewBox="0 0 64 64" fill="none" xmlns="http://www.w3.org/2000/svg">
<path d="M18.9651 19.5802C18.5451 19.4714 18.1252 19.7358 18.0163 20.1402L16.8498 24.853L11.6082 18.3048C11.3438 17.9627 10.846 17.916 10.5194 18.1804C10.1772 18.4448 10.1306 18.9425 10.395 19.2692L16.3832 26.7505L11.8104 45.0418C11.7015 45.4617 11.9659 45.8817 12.3703 45.9905C12.4325 46.0061 12.4947 46.0061 12.557 46.0061C12.8991 46.0061 13.2258 45.7728 13.3035 45.4151L19.525 20.529C19.6339 20.1091 19.3851 19.6891 18.9651 19.5802Z" fill="white"/>
<path d="M22.0756 25.8015C21.6556 25.6926 21.2357 25.957 21.1268 26.3614L18.016 38.8044C17.9072 39.2244 18.1716 39.6443 18.576 39.7532C18.6537 39.7843 18.716 39.7843 18.7782 39.7843C19.1204 39.7843 19.447 39.551 19.5248 39.1933L22.6355 26.7503C22.7444 26.3303 22.4955 25.9104 22.0756 25.8015Z" fill="white"/>
<path d="M26.7417 25.8015C26.3218 25.6926 25.9018 25.957 25.7929 26.3614L22.6822 38.8044C22.5733 39.2244 22.8377 39.6443 23.2421 39.7532C23.3199 39.7843 23.3821 39.7843 23.4443 39.7843C23.7865 39.7843 24.1131 39.551 24.1909 39.1933L27.3016 26.7503C27.4105 26.3303 27.1617 25.9104 26.7417 25.8015Z" fill="white"/>
<path d="M31.4078 25.8015C30.9879 25.6926 30.5679 25.957 30.4591 26.3614L27.3483 38.8044C27.2394 39.2244 27.5038 39.6443 27.9082 39.7532C27.986 39.7843 28.0482 39.7843 28.1104 39.7843C28.4526 39.7843 28.7792 39.551 28.857 39.1933L31.9678 26.7503C32.0766 26.3303 31.8278 25.9104 31.4078 25.8015Z" fill="white"/>
<path d="M36.074 25.8015C35.654 25.6926 35.2341 25.957 35.1252 26.3614L32.0144 38.8044C31.9056 39.2244 32.17 39.6443 32.5744 39.7532C32.6521 39.7843 32.7144 39.7843 32.7766 39.7843C33.1187 39.7843 33.4454 39.551 33.5231 39.1933L36.6339 26.7503C36.7428 26.3303 36.4939 25.9104 36.074 25.8015Z" fill="white"/>
<path d="M40.7401 25.8015C40.3201 25.6926 39.9002 25.957 39.7913 26.3614L36.6806 38.8044C36.5717 39.2244 36.8361 39.6443 37.2405 39.7532C37.3183 39.7843 37.3805 39.7843 37.4427 39.7843C37.7849 39.7843 38.1115 39.551 38.1893 39.1933L41.3 26.7503C41.4089 26.3303 41.16 25.9104 40.7401 25.8015Z" fill="white"/>
<path d="M45.4062 25.8015C44.9863 25.6926 44.5663 25.957 44.4574 26.3614L41.3467 38.8044C41.2378 39.2244 41.5022 39.6443 41.9066 39.7532C41.9844 39.7843 42.0466 39.7843 42.1088 39.7843C42.451 39.7843 42.7776 39.551 42.8554 39.1933L45.9662 26.7503C46.075 26.3303 45.8262 25.9104 45.4062 25.8015Z" fill="white"/>
<path d="M47.6308 37.2646L52.2036 18.9734C52.3125 18.5534 52.0481 18.1335 51.6437 18.0246C51.2237 17.9157 50.8038 18.1801 50.6949 18.5845L44.4734 43.4706C44.3645 43.8905 44.6289 44.3105 45.0333 44.4193C45.0955 44.4504 45.1578 44.4504 45.22 44.4504C45.5622 44.4504 45.8888 44.2171 45.9665 43.8594L47.1486 39.1622L52.3903 45.7103C52.5458 45.8969 52.7635 46.0058 52.9969 46.0058C53.1679 46.0058 53.339 45.9436 53.479 45.8347C53.8212 45.5703 53.8679 45.0726 53.6034 44.746L47.6308 37.2646Z" fill="white"/>
<path d="M32 0C14.327 0 0 14.327 0 32C0 49.673 14.327 64 32 64C49.673 64 64 49.673 64 32C64 14.327 49.673 0 32 0ZM32 63.2C14.796 63.2 0.8 49.204 0.8 32C0.8 14.796 14.796 0.8 32 0.8C49.204 0.8 63.2 14.796 63.2 32C63.2 49.204 49.204 63.2 32 63.2Z" fill="white"/>
</svg>
