<svg width="64" height="64" viewBox="0 0 64 64" fill="none" xmlns="http://www.w3.org/2000/svg">
<path d="M62.4349 28.0121L60.9811 26.4333C59.9376 25.3001 59.5489 23.838 59.8832 22.3353L60.3506 20.2346C61.0246 17.2236 59.3071 14.2588 56.364 13.3321L54.3123 12.6853C52.8367 12.2261 51.7741 11.1554 51.3148 9.68792L50.6681 7.6362C49.7441 4.69311 46.7793 2.9811 43.7655 3.64958L41.6676 4.117C40.1566 4.45125 38.7028 4.06265 37.5696 3.01913L35.9826 1.56529C33.7135 -0.521764 30.2839 -0.521764 28.0177 1.56529L26.4334 3.01642C25.3002 4.05995 23.8381 4.44856 22.3353 4.11428L20.2347 3.64687C17.2237 2.97292 14.2589 4.69039 13.3322 7.63349L12.6854 9.6852C12.2261 11.1608 11.1554 12.2233 9.68795 12.6826L7.63623 13.3294C4.69312 14.2533 2.98111 17.2181 3.64959 20.2319L4.11701 22.3325C4.45127 23.8435 4.06266 25.2974 3.01915 26.4306L1.5653 28.0175C-0.521766 30.2921 -0.521766 33.7162 1.5653 35.9824L3.01643 37.564C4.05996 38.6972 4.44858 40.1593 4.1143 41.662L3.64688 43.7626C2.97293 46.7736 4.69041 49.7384 7.63352 50.6652L9.68524 51.3119C11.1609 51.7712 12.2234 52.8419 12.6827 54.3094L13.3295 56.3611C14.2534 59.3042 17.2182 61.0162 20.232 60.3477L22.3326 59.8803C23.8436 59.546 25.2974 59.9346 26.4307 60.9781L28.0177 62.432C29.1536 63.4782 30.5722 64 31.9989 64C33.4256 64 34.8441 63.4782 35.9855 62.4347L37.5644 60.9809C38.6976 59.9373 40.1596 59.5487 41.6624 59.883L43.763 60.3504C46.774 61.0244 49.7388 59.3069 50.6656 56.3638L51.3123 54.3121C51.7716 52.8365 52.8423 51.7739 54.3098 51.3147L56.3615 50.6679C59.3046 49.7439 61.0166 46.7791 60.3481 43.7654L59.8807 41.6647C59.5465 40.1538 59.9351 38.6999 60.9786 37.5667L62.4324 35.9797C64.5222 33.7106 64.522 30.2866 62.4349 28.0121ZM61.4757 35.1018L60.0218 36.6888C58.6793 38.1509 58.1793 40.0206 58.6087 41.9554L59.0761 44.056C59.5979 46.4012 58.269 48.7111 55.9728 49.4259L53.921 50.0726C52.0296 50.6651 50.6573 52.0347 50.0675 53.9261L49.4208 55.9778C48.7034 58.266 46.3934 59.603 44.0509 59.0812L41.9503 58.6138C40.0154 58.1817 38.1457 58.6844 36.6837 60.0269L35.0967 61.4807C33.3303 63.1085 30.6644 63.1085 28.898 61.4807L27.311 60.0269C26.1913 58.9969 24.8353 58.4616 23.3869 58.4616C22.9412 58.4616 22.4956 58.5105 22.0444 58.6138L19.9438 59.0812C17.5985 59.6029 15.2887 58.274 14.5739 55.9778L13.9271 53.9261C13.3347 52.0346 11.9651 50.6623 10.0736 50.0726L8.02192 49.4258C5.73373 48.7084 4.39676 46.3985 4.91853 44.056L5.38595 41.9554C5.81803 40.0205 5.31529 38.1508 3.97286 36.6888L2.51902 35.1018C0.891246 33.3354 0.891246 30.6695 2.51902 28.9031L3.97286 27.3161C5.31533 25.8541 5.81532 23.9844 5.38595 22.0496L4.91853 19.949C4.39676 17.6037 5.72566 15.2938 8.02192 14.5791L10.0736 13.9323C11.9651 13.3399 13.3374 11.9703 13.9271 10.0789L14.5739 8.02714C15.2913 5.73897 17.6013 4.402 19.9438 4.92376L22.0444 5.39118C23.9793 5.82326 25.849 5.32052 27.311 3.9781L28.898 2.52426C30.6644 0.896495 33.3303 0.896495 35.0967 2.52426L36.6837 3.9781C38.1458 5.32057 40.0154 5.82055 41.9503 5.39118L44.0509 4.92376C46.3961 4.402 48.706 5.7309 49.4208 8.02714L50.0675 10.0789C50.66 11.9703 52.0296 13.3426 53.921 13.9323L55.9728 14.5791C58.2609 15.2965 59.5979 17.6064 59.0761 19.949L58.6087 22.0496C58.1766 23.9844 58.6794 25.8541 60.0218 27.3161L61.4757 28.9031C63.0953 30.6613 63.0953 33.3354 61.4757 35.1018ZM31.9987 10.8997C20.3598 10.8997 10.8998 20.3672 10.8998 31.9984C10.8998 43.6372 20.3675 53.0971 31.9987 53.0971C43.6299 53.0971 53.0975 43.6372 53.0975 31.9984C53.0975 20.3596 43.6375 10.8997 31.9987 10.8997ZM31.9987 51.7983C21.0826 51.7983 12.1987 42.9144 12.1987 31.9984C12.1987 21.0824 21.0826 12.1985 31.9987 12.1985C42.9147 12.1985 51.7986 21.0824 51.7986 31.9984C51.7986 42.9144 42.9147 51.7983 31.9987 51.7983ZM41.5233 21.033C40.564 21.0113 39.6591 21.3591 38.9634 22.0222L26.313 34.0854L22.9107 29.7917C21.6851 28.24 19.4322 27.9764 17.8887 29.1993C16.3369 30.4249 16.0733 32.6777 17.2962 34.2213L23.1335 41.5969C23.7531 42.3823 24.6852 42.8769 25.6934 42.9475C25.7776 42.9557 25.8673 42.9557 25.9516 42.9557C26.8619 42.9557 27.7533 42.6078 28.4137 41.9746L43.9011 27.2129C44.5968 26.5525 44.9854 25.6612 45.0153 24.7073C45.037 23.748 44.6892 22.8431 44.0261 22.1474C43.3739 21.4517 42.4826 21.0629 41.5233 21.033ZM43.0044 26.2669L27.517 41.0342C27.0577 41.4718 26.4245 41.6946 25.7913 41.6457C25.15 41.5968 24.5603 41.2897 24.1636 40.7896L18.3263 33.4091C17.5464 32.4281 17.7203 30.9959 18.7013 30.2161C19.1742 29.841 19.7721 29.6726 20.3781 29.7432C20.9841 29.8139 21.5194 30.1128 21.8945 30.5911L25.737 35.4555C25.8484 35.6022 26.0224 35.6919 26.2044 35.7001C26.3865 35.7136 26.5659 35.6511 26.699 35.518L39.8628 22.9685C40.3004 22.55 40.8847 22.3217 41.4906 22.3435C42.0966 22.3571 42.6673 22.6071 43.0831 23.0527C43.5016 23.4903 43.7245 24.0691 43.7082 24.6805C43.6918 25.2919 43.45 25.8485 43.0044 26.2669Z" fill="black"/>
</svg>
