<svg width="64" height="64" viewBox="0 0 64 64" fill="none" xmlns="http://www.w3.org/2000/svg">
<path d="M32.0001 10.24C26.2429 10.2457 20.7229 12.5372 16.6547 16.6086C12.5832 20.6772 10.2918 26.1969 10.2861 31.954C11.4804 60.7599 52.5262 60.7512 53.7148 31.954C53.7091 26.1968 51.4177 20.6768 47.3462 16.6086C43.2776 12.5372 37.7572 10.2457 32.0001 10.24ZM51.0743 35.5973L39.6742 24.203C40.1542 23.4373 40.4085 22.5545 40.4114 21.6487C40.42 19.4173 38.9199 17.4601 36.7628 16.8887C34.6028 16.3144 32.3313 17.2744 31.2342 19.2173C30.1371 21.1631 30.4914 23.603 32.0942 25.1573C33.6999 26.7088 36.1514 26.9802 38.0599 25.8202L50.3969 38.1514C48.5312 43.6457 44.3169 48.0228 38.8967 50.0942L26.3307 37.537C27.1421 36.2255 27.2935 34.6113 26.7335 33.1741C26.1764 31.7341 24.9764 30.6427 23.4907 30.2256C22.0078 29.8085 20.4135 30.1113 19.1878 31.0485C17.9621 31.9827 17.245 33.4399 17.2564 34.9799C17.2707 36.7456 18.2335 38.3685 19.7735 39.2313C21.3164 40.0914 23.1993 40.0628 24.7136 39.1513L36.4223 50.8542C17.8564 55.1942 4.8735 32.714 17.7196 18.8256L31.5912 32.6943C30.2969 34.8114 30.7883 37.5628 32.7398 39.1C34.6912 40.6343 37.4826 40.4686 39.2369 38.7114C40.9912 36.9543 41.1541 34.1628 39.614 32.2143C38.0769 30.2657 35.3226 29.7771 33.2083 31.0771L19.3565 17.2311C33.0906 5.32563 54.531 17.6054 51.0735 35.5966L51.0743 35.5973ZM35.5058 24.2718C34.0687 24.2546 32.9144 23.0861 32.9144 21.6518C32.9144 20.2147 34.0686 19.0461 35.5058 19.0318C36.9429 19.0461 38.0973 20.2147 38.0973 21.6518C38.0973 23.0861 36.943 24.2547 35.5058 24.2718ZM22.1631 37.6036C20.726 37.5864 19.5688 36.4179 19.5688 34.9836C19.5688 33.5465 20.7259 32.3779 22.1631 32.3636C23.6002 32.375 24.7602 33.5436 24.7602 34.9836C24.7602 36.4207 23.6003 37.5893 22.1631 37.6036ZM35.7633 32.6236C37.2004 32.6407 38.3547 33.8093 38.3547 35.2435C38.3547 36.6807 37.2005 37.8493 35.7633 37.8635C34.3262 37.8492 33.169 36.6807 33.169 35.2435C33.169 33.8093 34.3261 32.6407 35.7633 32.6236Z" fill="white"/>
<path d="M62.1629 25.1229L57.2943 24.3029H57.2972C56.8115 22.6771 56.1486 21.1086 55.3172 19.6286L58.1886 15.5371C58.8144 14.6543 58.7086 13.4514 57.9429 12.6886L51.3115 6.05715C50.5486 5.29141 49.3486 5.18572 48.4658 5.80858L44.4429 8.67147C42.9515 7.86287 41.3743 7.22287 39.74 6.76002L38.8772 1.83428V1.83713C38.6914 0.774292 37.7686 0 36.6914 0H27.3086C26.2315 0 25.3086 0.774292 25.1229 1.83713L24.3029 6.70568V6.70282C22.6771 7.18854 21.1086 7.85139 19.6286 8.68281L15.5371 5.81136C14.6543 5.18564 13.4514 5.29135 12.6886 6.05707L6.05715 12.6885C5.29141 13.4514 5.18572 14.6514 5.80858 15.5342L8.67147 19.5571C7.86287 21.0485 7.22287 22.6257 6.76002 24.26L1.83428 25.1228H1.83713C0.774292 25.3086 0 26.2314 0 27.3086V36.6914C0 37.7685 0.774292 38.6914 1.83713 38.8771L6.70568 39.6971H6.70282C7.18854 41.3229 7.85139 42.8914 8.68281 44.3714L5.81136 48.4629C5.18564 49.3457 5.29135 50.5486 6.05707 51.3114L12.6914 57.9457L12.6885 57.9429C13.4514 58.7086 14.6514 58.8143 15.5342 58.1914L19.5571 55.3285C21.0485 56.1371 22.6257 56.7771 24.26 57.24L25.1228 62.1657V62.1629C25.3085 63.2257 26.2314 64 27.3086 64H36.6914C37.7685 64 38.6914 63.2257 38.8771 62.1629L39.6971 57.2972C41.3228 56.8115 42.8914 56.1486 44.3714 55.3172L48.4629 58.1886H48.4657C49.3457 58.8115 50.5486 58.7086 51.3114 57.9429L57.9457 51.3086L57.9429 51.3115C58.7086 50.5486 58.8143 49.3486 58.1914 48.4658L55.3285 44.4429C56.1371 42.9514 56.7771 41.3743 57.24 39.74L62.1657 38.8772H62.1629C63.2257 38.6914 64 37.7686 64 36.6914V27.3086C64 26.2315 63.2257 25.3086 62.1629 25.1229ZM56.8429 37.4885C56.02 37.6342 55.3486 38.2313 55.1086 39.0342C54.6543 40.5342 54.0515 41.9857 53.3143 43.3685C52.9143 44.1028 52.9657 45 53.4486 45.6857L56.3286 49.6943L49.78 56.32L45.6886 53.4486C45.0028 52.9657 44.1028 52.9143 43.3657 53.3143C41.9828 54.0514 40.5342 54.6543 39.0342 55.1114C38.2313 55.3486 37.6313 56.02 37.4885 56.8429L36.6914 61.7143L27.3744 61.7686L26.5115 56.8429C26.3687 56.02 25.7687 55.3486 24.9687 55.1114C23.0773 54.7086 21.4401 53.4 19.5772 53.0486V53.0457C19.1258 53.0457 18.6829 53.1857 18.3143 53.4486L14.3057 56.3286L7.67999 49.78L10.5514 45.6885C11.0343 45.0028 11.0857 44.1028 10.6857 43.3657C9.94859 41.9828 9.34574 40.5342 8.89145 39.0342C8.65145 38.2313 7.98001 37.6342 7.15715 37.4885L2.28568 36.6914L2.23139 27.3744L7.15714 26.5115C7.98 26.3658 8.65145 25.7687 8.89143 24.9658C11.3172 17.9258 12.32 20.82 7.67141 14.3059L14.22 7.68019C20.8886 12.3202 17.9 11.3145 24.9654 8.89159H24.9683C25.7683 8.65159 26.3655 7.98015 26.5112 7.15729L27.3083 2.28582L36.6252 2.23153L37.4881 7.15728C37.6338 7.98014 38.2309 8.65159 39.0338 8.89157C40.531 9.34586 41.9824 9.94871 43.3653 10.6858C44.0996 11.0859 44.9996 11.0344 45.6853 10.5516L49.6939 7.67156L56.3197 14.2201L53.4482 18.3116C52.9654 18.9973 52.9139 19.8973 53.3139 20.6345C54.0511 22.0173 54.6539 23.4659 55.1082 24.9659C55.3482 25.7688 56.0196 26.366 56.8425 26.5117L61.714 27.366L61.7683 36.6259L56.8429 37.4885Z" fill="white"/>
</svg>
