<svg width="84" height="47" viewBox="0 0 84 47" fill="none" xmlns="http://www.w3.org/2000/svg">
<path fill-rule="evenodd" clip-rule="evenodd" d="M65.8412 2.40946C76.5918 6.75127 83.6155 13.9081 83.6155 22.0192C83.6155 31.49 74.0117 39.6965 60.1076 43.5851L58.1486 40.6746C69.3292 37.1439 76.9263 30.1302 76.9263 22.0192C76.9263 15.5065 71.981 9.66171 64.2406 5.82088C64.1211 5.77317 63.9539 5.67775 63.8584 5.63003L65.8651 2.40946H65.8412ZM40.3743 23.4267L36.8386 28.7943C33.4701 23.7845 24.1052 9.80485 21.095 5.00978C12.3751 8.85061 6.68924 15.0293 6.68924 22.0192C6.68924 30.0348 14.143 36.9769 25.1085 40.5553L23.1257 43.4658C9.41272 39.5295 0 31.3946 0 22.0192C0 12.6437 10.2011 3.84083 24.8219 0.0954243L40.3743 23.4267ZM58.507 0C60.3465 0.524834 62.2338 1.00196 64.0256 1.69378L63.5478 2.50489L63.4522 2.62417L37.0536 42.8694C38.6065 42.9887 40.1832 43.0602 41.8078 43.0602C45.7018 43.0602 49.4526 42.6785 52.9644 41.9867L54.8518 44.8017C54.4695 44.8733 54.0634 44.9449 53.6811 45.0164C39.6337 47.5452 28.3098 44.7301 28.3098 44.7301L58.507 0Z" fill="#ED1C24"/>
<path d="M58.507 0C60.3465 0.524834 62.2338 1.00196 64.0256 1.69378L63.5478 2.50489L63.4522 2.62417L37.0536 42.8694C38.6065 42.9887 40.1832 43.0602 41.8078 43.0602C45.7018 43.0602 49.4526 42.6785 52.9644 41.9867L54.8518 44.8017C54.4695 44.8733 54.0634 44.9449 53.6811 45.0164C39.6337 47.5452 28.3098 44.7301 28.3098 44.7301L58.507 0Z" fill="url(#paint0_linear_65_97)"/>
<defs>
<linearGradient id="paint0_linear_65_97" x1="59.8456" y1="6.62229e-07" x2="28.4362" y2="46.1577" gradientUnits="userSpaceOnUse">
<stop stop-color="#ED1C24"/>
<stop offset="1" stop-color="white"/>
</linearGradient>
</defs>
</svg>
