<svg width="127" height="122" viewBox="0 0 127 122" fill="none" xmlns="http://www.w3.org/2000/svg">
<path fill-rule="evenodd" clip-rule="evenodd" d="M82.1584 2.40946C92.909 6.75127 99.9327 13.9081 99.9327 22.0192C99.9327 31.49 90.3288 39.6965 76.4248 43.5851L74.4658 40.6746C85.6463 37.1439 93.2434 30.1302 93.2434 22.0192C93.2434 15.5065 88.2982 9.66171 80.5577 5.82088C80.4383 5.77317 80.2711 5.67775 80.1755 5.63003L82.1823 2.40946H82.1584ZM56.6915 23.4267L53.1558 28.7943C49.7872 23.7845 40.4223 9.80485 37.4122 5.00978C28.6922 8.85061 23.0064 15.0293 23.0064 22.0192C23.0064 30.0348 30.4601 36.9769 41.4257 40.5553L39.4428 43.4658C25.7299 39.5295 16.3172 31.3946 16.3172 22.0192C16.3172 12.6437 26.5182 3.84083 41.139 0.0954243L56.6915 23.4267ZM74.8241 0C76.6637 0.524834 78.551 1.00196 80.3427 1.69378L79.8649 2.50489L79.7694 2.62417L53.3708 42.8694C54.9236 42.9887 56.5004 43.0602 58.1249 43.0602C62.019 43.0602 65.7697 42.6785 69.2816 41.9867L71.1689 44.8017C70.7867 44.8733 70.3805 44.9449 69.9983 45.0164C55.9509 47.5452 44.627 44.7301 44.627 44.7301L74.8241 0Z" fill="#ED1C24"/>
<path d="M8.00301 121.857L6.25903 114.652C6.21125 114.438 6.16347 114.223 6.13958 114.008C6.11569 113.794 6.06791 113.627 6.04402 113.483C6.04402 113.603 5.99624 113.746 5.97235 113.889C5.97235 114.032 5.90068 114.271 5.80512 114.652L4.03725 121.857H2.81885L0.405946 111.527H1.83935L3.32054 118.994C3.36832 119.233 3.4161 119.495 3.43999 119.71C3.46388 119.948 3.48777 120.092 3.51166 120.187C3.51166 120.044 3.55945 119.901 3.58334 119.758C3.60723 119.638 3.6789 119.376 3.77446 118.994L5.56622 111.527H6.61738L8.38525 118.994C8.43303 119.209 8.48081 119.424 8.52859 119.686C8.57638 119.925 8.60027 120.092 8.60027 120.187C8.62416 120.044 8.67194 119.853 8.69583 119.638C8.71972 119.424 8.7675 119.209 8.81528 118.994L10.3681 111.527H11.6582L9.2453 121.857H8.00301Z" fill="white"/>
<path d="M17.4881 111.527H16.1025V121.857H17.4881V111.527Z" fill="white"/>
<path d="M25.1807 112.171C24.679 112.171 24.2729 112.243 24.0101 112.386V116.728C24.2012 116.799 24.5118 116.823 24.894 116.823C25.7302 116.823 26.3513 116.632 26.7575 116.227C27.1636 115.821 27.3786 115.249 27.3786 114.485C27.3786 112.935 26.638 112.171 25.1807 112.171ZM27.4264 121.857L24.034 117.038V121.857H22.6245V111.933C22.9112 111.766 23.2934 111.646 23.7234 111.527C24.1773 111.432 24.6551 111.36 25.1807 111.36C26.3275 111.36 27.2114 111.623 27.8086 112.171C28.4059 112.72 28.7165 113.46 28.7165 114.438C28.7165 115.32 28.4298 116.012 27.8564 116.513C27.2831 117.038 26.5186 117.276 25.5869 117.276L28.9554 121.857H27.4025H27.4264Z" fill="white"/>
<path d="M33.494 121.857V111.527H38.2959V112.434H34.8797V116.06H37.9376V116.966H34.8797V120.926H38.2959V121.857H33.494Z" fill="white"/>
<path d="M53.9921 121.857V116.966H50.098V121.857H48.7123V111.527H50.098V116.06H53.9921V111.527H55.3777V121.857H53.9921Z" fill="white"/>
<path d="M63.9543 114.008C63.8349 113.603 63.7393 113.316 63.7154 113.126C63.6915 112.959 63.6676 112.839 63.6438 112.768C63.6199 112.887 63.5721 113.03 63.5243 113.197C63.4765 113.364 63.4049 113.627 63.2854 114.032L62.0431 117.944H65.1488L63.9304 114.032L63.9543 114.008ZM66.3433 121.857L65.3638 118.756H61.8281L60.8247 121.857H59.5585L63.0704 111.527H64.3127L67.8006 121.857H66.3433Z" fill="white"/>
<path d="M74.5376 112.171C74.0359 112.171 73.6297 112.243 73.367 112.386V116.728C73.5581 116.799 73.8686 116.823 74.2509 116.823C75.087 116.823 75.7082 116.632 76.1143 116.227C76.5205 115.821 76.7355 115.249 76.7355 114.485C76.7355 112.935 75.9949 112.171 74.5376 112.171ZM76.8071 121.857L73.4147 117.038V121.857H72.0052V111.933C72.2919 111.766 72.6741 111.646 73.1042 111.527C73.5581 111.432 74.0359 111.36 74.5615 111.36C75.7082 111.36 76.5921 111.623 77.1894 112.171C77.7866 112.72 78.0972 113.46 78.0972 114.438C78.0972 115.32 77.8105 116.012 77.2372 116.513C76.6638 117.038 75.8993 117.276 74.9676 117.276L78.3361 121.857H76.7832H76.8071Z" fill="white"/>
<path d="M89.0629 121.857L84.6671 114.318C84.5715 114.151 84.4521 113.937 84.3326 113.698C84.1893 113.436 84.0937 113.221 83.9982 113.078V121.857H82.8514V111.527H84.3087L88.5373 118.756C88.7045 119.018 88.824 119.257 88.9195 119.447C89.0151 119.638 89.0868 119.781 89.1106 119.853V111.503H90.2574V121.833H89.0629V121.857Z" fill="white"/>
<path d="M95.3459 121.857V111.527H100.124V112.434H96.7077V116.06H99.7895V116.966H96.7077V120.926H100.124V121.857H95.3459Z" fill="white"/>
<path d="M106.622 122C106.049 122 105.571 121.952 105.212 121.857C104.854 121.761 104.52 121.618 104.209 121.427L104.567 120.473C104.806 120.616 105.069 120.736 105.356 120.807C105.642 120.903 106.001 120.95 106.359 120.95C106.956 120.95 107.41 120.783 107.769 120.425C108.127 120.068 108.294 119.614 108.294 119.018C108.294 118.565 108.151 118.183 107.888 117.873C107.625 117.563 107.124 117.276 106.383 116.99C105.642 116.704 105.117 116.322 104.782 115.845C104.448 115.368 104.281 114.843 104.281 114.271C104.281 113.46 104.544 112.792 105.093 112.219C105.619 111.646 106.335 111.36 107.195 111.36C107.673 111.36 108.079 111.408 108.414 111.503C108.748 111.599 109.059 111.742 109.298 111.909L108.963 112.768C108.724 112.625 108.485 112.505 108.223 112.434C107.96 112.338 107.649 112.291 107.339 112.291C106.789 112.291 106.383 112.458 106.073 112.792C105.762 113.126 105.619 113.555 105.619 114.104C105.619 114.581 105.762 114.962 106.073 115.249C106.383 115.535 106.885 115.821 107.625 116.108C108.366 116.394 108.892 116.799 109.202 117.3C109.537 117.801 109.68 118.35 109.68 118.923C109.68 119.829 109.393 120.569 108.796 121.117C108.223 121.69 107.458 121.976 106.55 121.976" fill="white"/>
<path d="M116.345 122C115.772 122 115.294 121.952 114.935 121.857C114.577 121.761 114.243 121.618 113.932 121.427L114.29 120.473C114.529 120.616 114.792 120.736 115.079 120.807C115.365 120.903 115.724 120.95 116.082 120.95C116.679 120.95 117.133 120.783 117.492 120.425C117.85 120.068 118.017 119.614 118.017 119.018C118.017 118.565 117.874 118.183 117.611 117.873C117.348 117.563 116.847 117.276 116.106 116.99C115.365 116.704 114.84 116.322 114.505 115.845C114.171 115.368 114.004 114.843 114.004 114.271C114.004 113.46 114.266 112.792 114.816 112.219C115.341 111.646 116.058 111.36 116.918 111.36C117.396 111.36 117.802 111.408 118.137 111.503C118.471 111.599 118.782 111.742 119.021 111.909L118.686 112.768C118.447 112.625 118.208 112.505 117.945 112.434C117.683 112.338 117.372 112.291 117.062 112.291C116.512 112.291 116.106 112.458 115.795 112.792C115.485 113.126 115.341 113.555 115.341 114.104C115.341 114.581 115.485 114.962 115.795 115.249C116.106 115.535 116.608 115.821 117.348 116.108C118.089 116.394 118.614 116.799 118.925 117.3C119.259 117.801 119.403 118.35 119.403 118.923C119.403 119.829 119.116 120.569 118.519 121.117C117.946 121.69 117.181 121.976 116.273 121.976" fill="white"/>
<path d="M122.867 66.7493H123.56C123.894 66.7493 124.109 66.7016 124.229 66.6062C124.348 66.5108 124.42 66.3915 124.42 66.2245C124.42 66.1291 124.396 66.0336 124.324 65.9382C124.276 65.8666 124.181 65.7951 124.085 65.7474C123.99 65.6997 123.799 65.6758 123.512 65.6758H122.867V66.7493ZM122.317 68.7055V65.2225H123.512C123.918 65.2225 124.229 65.2464 124.396 65.318C124.587 65.3895 124.73 65.485 124.826 65.6519C124.945 65.8189 124.993 65.9859 124.993 66.1529C124.993 66.4153 124.898 66.6301 124.706 66.8209C124.515 67.0117 124.276 67.1072 123.966 67.131C124.085 67.1787 124.181 67.2503 124.252 67.3219C124.396 67.465 124.563 67.6797 124.778 68.0137L125.208 68.7055H124.515L124.205 68.1568C123.966 67.7274 123.751 67.4412 123.607 67.3457C123.512 67.2742 123.345 67.2264 123.154 67.2264H122.819V68.7055H122.246H122.317ZM123.751 64.1967C123.297 64.1967 122.843 64.316 122.413 64.5546C121.983 64.7931 121.648 65.1271 121.386 65.5565C121.147 65.9859 121.027 66.4392 121.027 66.9163C121.027 67.3934 121.147 67.8229 121.386 68.2523C121.625 68.6817 121.959 69.0157 122.389 69.2542C122.819 69.4928 123.273 69.6121 123.751 69.6121C124.229 69.6121 124.659 69.4928 125.113 69.2542C125.543 69.0157 125.877 68.6817 126.116 68.2523C126.355 67.8229 126.474 67.3696 126.474 66.9163C126.474 66.4631 126.355 65.9859 126.116 65.5565C125.877 65.1271 125.543 64.7931 125.089 64.5546C124.659 64.316 124.205 64.1967 123.751 64.1967ZM123.751 63.6719C124.3 63.6719 124.826 63.815 125.351 64.1013C125.877 64.3876 126.283 64.7931 126.57 65.2941C126.857 65.8189 127 66.3676 127 66.9163C127 67.465 126.857 68.0137 126.57 68.5385C126.283 69.0634 125.877 69.4689 125.375 69.7313C124.85 70.0176 124.324 70.1607 123.751 70.1607C123.177 70.1607 122.652 70.0176 122.126 69.7313C121.601 69.4451 121.218 69.0395 120.932 68.5385C120.645 68.0137 120.502 67.4889 120.502 66.9163C120.502 66.3438 120.645 65.8189 120.932 65.2941C121.218 64.7693 121.625 64.3637 122.15 64.1013C122.676 63.815 123.201 63.6719 123.751 63.6719Z" fill="white"/>
<path d="M0 96.3308V64.3875H5.94865V92.3946H14.788V96.3308H0Z" fill="white"/>
<path d="M19.4227 96.3308V71.3058H25.0847V96.3308H19.4227ZM22.2657 66.9878C21.4056 66.9878 20.665 66.7254 20.0678 66.1767C19.4705 65.628 19.1599 64.9839 19.1599 64.1966C19.1599 63.4094 19.4705 62.7176 20.0678 62.1689C20.665 61.6202 21.4056 61.3578 22.2657 61.3578C23.1257 61.3578 23.9141 61.6202 24.4874 62.145C25.0847 62.6699 25.3714 63.3617 25.3714 64.1966C25.3714 64.96 25.0608 65.628 24.4636 66.1767C23.8663 66.7254 23.1257 66.9878 22.2657 66.9878Z" fill="white"/>
<path d="M27.2351 106.78V103.01C28.6924 102.51 29.7913 101.651 30.508 100.434C31.2247 99.2174 31.607 97.3566 31.607 94.8279V71.3058H37.2689V94.2076C37.2689 98.0007 36.3133 101.03 34.3782 103.321C32.467 105.611 30.078 106.756 27.2112 106.756M34.4499 66.9878C33.5899 66.9878 32.8493 66.7254 32.252 66.1767C31.6548 65.628 31.3442 64.9839 31.3442 64.1966C31.3442 63.4094 31.6548 62.7176 32.252 62.1689C32.8493 61.6202 33.5899 61.3578 34.4499 61.3578C35.31 61.3578 36.0506 61.6202 36.6478 62.1689C37.2451 62.7176 37.5556 63.3855 37.5556 64.1966C37.5556 65.0078 37.2451 65.628 36.6478 66.1767C36.0506 66.7254 35.31 66.9878 34.4499 66.9878Z" fill="white"/>
<path d="M69.4961 96.3309L67.4654 75.2183C67.3937 74.4549 67.3459 73.7153 67.3221 73.0712C67.3221 72.4032 67.3221 71.8307 67.3221 71.3774C67.2026 71.8307 67.0593 72.3555 66.9159 72.9281C66.7726 73.5006 66.5098 74.4549 66.1275 75.8147C65.7453 77.1506 65.0047 79.7032 63.9535 83.4486C62.8785 87.194 62.0423 90.1522 61.4212 92.3469C60.8 94.5178 60.3939 95.8776 60.2028 96.3547H56.8582C56.3087 94.3985 55.6398 92.1084 54.8753 89.4603C54.1108 86.8123 53.3702 84.212 52.6535 81.6594C51.9368 79.1068 51.3873 77.1745 51.0051 75.8624C50.6228 74.5503 50.36 73.5245 50.2167 72.8326C50.0734 72.117 49.9539 71.6398 49.8822 71.4013C49.8584 71.8545 49.8345 72.3794 49.8106 72.9519C49.8106 73.5245 49.7389 74.264 49.6433 75.1944L47.5888 96.3547H42.6196L46.2032 64.4353H52.1518L57.8616 84.9038C58.0049 85.5241 58.1721 86.2159 58.3394 87.0032C58.5066 87.7666 58.626 88.2675 58.6977 88.4822C58.7933 88.0767 58.8888 87.6234 59.0322 87.1224C59.1755 86.6215 59.3666 85.8819 59.6294 84.9277L65.5303 64.4592H71.4789L75.0625 96.3786H69.4961V96.3309Z" fill="white"/>
<path d="M89.8035 74.3356C88.1073 74.3356 86.7694 75.0512 85.8138 76.5065C84.8582 77.9378 84.3804 80.1087 84.3804 83.043L94.7487 81.4447C94.7487 79.0113 94.3187 77.2221 93.4826 76.077C92.6225 74.932 91.4041 74.3594 89.8274 74.3594M84.691 85.8819C85.1449 90.5338 87.4384 92.8479 91.5236 92.8479C92.8853 92.8479 94.0798 92.7286 95.1071 92.4662C96.1344 92.2276 97.0422 91.8698 97.8545 91.4404L99.1923 95.0188C98.2367 95.5436 97.0661 95.973 95.7282 96.307C94.3904 96.641 92.7659 96.7841 90.9263 96.7841C87.3428 96.7841 84.4999 95.6629 82.4214 93.3966C80.343 91.1302 79.3157 87.9097 79.3157 83.7348C79.3157 79.56 80.2713 76.5065 82.1825 74.2401C84.0938 71.9738 86.6978 70.8287 90.0185 70.8287C93.3392 70.8287 95.8238 71.9022 97.52 74.0493C99.2162 76.1963 100.052 79.393 100.052 83.6394L84.7149 85.858L84.691 85.8819Z" fill="white"/>
<path d="M89.8162 74.3544C88.12 74.3544 86.7822 75.07 85.8266 76.5253C84.871 77.9566 84.3932 80.1275 84.3932 83.0618L94.7615 81.4635C94.7615 79.0302 94.3315 77.2409 93.4953 76.0959C92.6353 74.9508 91.4169 74.3782 89.8401 74.3782M84.7037 85.9007C85.1576 90.5526 87.4511 92.8667 91.5363 92.8667C92.898 92.8667 94.0926 92.7474 95.1198 92.485C96.1471 92.2464 97.0549 91.8886 97.8672 91.4592L99.205 95.0376C98.2494 95.5624 97.0788 95.9918 95.741 96.3258C94.4031 96.6598 92.7786 96.8029 90.9391 96.8029C87.3555 96.8029 84.5126 95.6817 82.4342 93.4154C80.3557 91.149 79.3284 87.9285 79.3284 83.7537C79.3284 79.5788 80.2841 76.5253 82.1953 74.2589C84.1065 71.9926 86.7105 70.8475 90.0312 70.8475C93.352 70.8475 95.8365 71.921 97.5327 74.0681C99.2289 76.2151 100.065 79.4119 100.065 83.6582L84.7276 85.8769L84.7037 85.9007Z" fill="white"/>
<path d="M114.147 96.7841C111.208 96.7841 108.819 95.639 106.98 93.325C105.14 91.011 104.232 87.8142 104.232 83.7348C104.232 79.6555 105.164 76.5542 107.051 74.264C108.915 71.9738 111.304 70.8287 114.195 70.8287C115.628 70.8287 116.799 70.9957 117.73 71.3058C118.662 71.6398 119.427 72.0454 120 72.5463L118.782 75.7431C118.375 75.4329 117.921 75.1705 117.396 74.9797C116.87 74.7888 116.225 74.6695 115.437 74.6695C113.573 74.6695 112.188 75.4568 111.304 77.0074C110.396 78.5581 109.966 80.7767 109.966 83.6156C109.966 86.4544 110.444 88.6015 111.376 90.2237C112.331 91.8459 113.645 92.657 115.341 92.657C116.106 92.657 116.751 92.5616 117.276 92.3946C117.778 92.2276 118.28 91.9413 118.734 91.5358L120.024 95.0188C119.474 95.5436 118.71 95.973 117.73 96.2831C116.751 96.5933 115.556 96.7364 114.123 96.7364" fill="white"/>
<path d="M74.8241 0C76.6637 0.524834 78.551 1.00196 80.3427 1.69378L79.8649 2.50489L79.7694 2.62417L53.3708 42.8694C54.9236 42.9887 56.5004 43.0602 58.1249 43.0602C62.019 43.0602 65.7697 42.6785 69.2816 41.9867L71.1689 44.8017C70.7867 44.8733 70.3805 44.9449 69.9983 45.0164C55.9509 47.5452 44.627 44.7301 44.627 44.7301L74.8241 0Z" fill="url(#paint0_linear_65_92)"/>
<defs>
<linearGradient id="paint0_linear_65_92" x1="76.1627" y1="-1.1761e-06" x2="44.7533" y2="46.1577" gradientUnits="userSpaceOnUse">
<stop stop-color="#ED1C24"/>
<stop offset="1" stop-color="white"/>
</linearGradient>
</defs>
</svg>
