<svg width="208" height="61" viewBox="0 0 208 61" fill="none" xmlns="http://www.w3.org/2000/svg">
<path fill-rule="evenodd" clip-rule="evenodd" d="M57.4823 2.09197C66.868 5.86167 73 12.0755 73 19.1178C73 27.3407 64.6154 34.4658 52.4766 37.842L50.7663 35.315C60.5274 32.2496 67.16 26.16 67.16 19.1178C67.16 13.4632 62.8426 8.38861 56.0849 5.05388C55.9806 5.01245 55.8346 4.9296 55.7511 4.88818L57.5031 2.09197H57.4823ZM35.2486 20.3398L32.1617 25.0001C29.2209 20.6505 21.0449 8.51289 18.4169 4.34965C10.804 7.68438 5.84 13.049 5.84 19.1178C5.84 26.0772 12.3474 32.1046 21.9209 35.2115L20.1897 37.7384C8.21771 34.3208 0 27.2578 0 19.1178C0 10.9777 8.906 3.33473 21.6706 0.0828505L35.2486 20.3398ZM51.0791 0C52.6851 0.455678 54.3329 0.86993 55.8971 1.4706L55.48 2.17483L55.3966 2.27839L32.3494 37.2206C33.7051 37.3241 35.0817 37.3863 36.5 37.3863C39.8997 37.3863 43.1743 37.0549 46.2403 36.4542L47.888 38.8983C47.5543 38.9604 47.1997 39.0226 46.866 39.0847C34.602 41.2803 24.7157 38.8362 24.7157 38.8362L51.0791 0Z" fill="#ED1C24"/>
<path d="M51.0791 0C52.6851 0.455678 54.3329 0.86993 55.8971 1.4706L55.48 2.17483L55.3966 2.27839L32.3494 37.2206C33.7051 37.3241 35.0817 37.3863 36.5 37.3863C39.8997 37.3863 43.1743 37.0549 46.2403 36.4542L47.888 38.8983C47.5543 38.9604 47.1997 39.0226 46.866 39.0847C34.602 41.2803 24.7157 38.8362 24.7157 38.8362L51.0791 0Z" fill="url(#paint0_linear_94_6)"/>
<path d="M88.1859 60.4991L86.4419 53.2946C86.3941 53.0799 86.3463 52.8652 86.3224 52.6505C86.2986 52.4357 86.2508 52.2688 86.2269 52.1256C86.2269 52.2449 86.1791 52.388 86.1552 52.5312C86.1552 52.6743 86.0835 52.9129 85.988 53.2946L84.2201 60.4991H83.0017L80.5888 50.1694H82.0222L83.5034 57.6364C83.5512 57.8749 83.599 58.1374 83.6229 58.3521C83.6467 58.5906 83.6706 58.7338 83.6945 58.8292C83.6945 58.686 83.7423 58.5429 83.7662 58.3998C83.7901 58.2805 83.8618 58.0181 83.9573 57.6364L85.7491 50.1694H86.8002L88.5681 57.6364C88.6159 57.8511 88.6637 58.0658 88.7115 58.3282C88.7592 58.5668 88.7831 58.7338 88.7831 58.8292C88.807 58.686 88.8548 58.4952 88.8787 58.2805C88.9026 58.0658 88.9504 57.8511 88.9981 57.6364L90.551 50.1694H91.8411L89.4282 60.4991H88.1859Z" fill="white"/>
<path d="M97.671 50.1694H96.2854V60.4991H97.671V50.1694Z" fill="white"/>
<path d="M105.364 50.8135C104.862 50.8135 104.456 50.8851 104.193 51.0282V55.37C104.384 55.4416 104.695 55.4654 105.077 55.4654C105.913 55.4654 106.534 55.2746 106.94 54.869C107.346 54.4635 107.561 53.8909 107.561 53.1275C107.561 51.5769 106.821 50.8135 105.364 50.8135ZM107.609 60.4991L104.217 55.6801V60.4991H102.807V50.5749C103.094 50.4079 103.476 50.2887 103.906 50.1694C104.36 50.074 104.838 50.0024 105.364 50.0024C106.51 50.0024 107.394 50.2648 107.992 50.8135C108.589 51.3622 108.899 52.1017 108.899 53.0798C108.899 53.9625 108.613 54.6543 108.039 55.1553C107.466 55.6801 106.701 55.9187 105.77 55.9187L109.138 60.4991H107.585H107.609Z" fill="white"/>
<path d="M113.677 60.4991V50.1694H118.479V51.076H115.063V54.7021H118.12V55.6086H115.063V59.5687H118.479V60.4991H113.677Z" fill="white"/>
<path d="M134.175 60.4991V55.6086H130.281V60.4991H128.895V50.1694H130.281V54.7021H134.175V50.1694H135.561V60.4991H134.175Z" fill="white"/>
<path d="M144.137 52.6505C144.018 52.2449 143.922 51.9586 143.898 51.7678C143.874 51.6008 143.851 51.4815 143.827 51.4099C143.803 51.5292 143.755 51.6724 143.707 51.8393C143.659 52.0063 143.588 52.2688 143.468 52.6743L142.226 56.5867H145.332L144.113 52.6743L144.137 52.6505ZM146.526 60.4991L145.547 57.3978H142.011L141.008 60.4991H139.741L143.253 50.1694H144.496L147.983 60.4991H146.526Z" fill="white"/>
<path d="M154.72 50.8135C154.219 50.8135 153.813 50.8851 153.55 51.0282V55.37C153.741 55.4416 154.052 55.4654 154.434 55.4654C155.27 55.4654 155.891 55.2746 156.297 54.869C156.703 54.4635 156.918 53.8909 156.918 53.1275C156.918 51.5769 156.178 50.8135 154.72 50.8135ZM156.99 60.4991L153.598 55.6801V60.4991H152.188V50.5749C152.475 50.4079 152.857 50.2887 153.287 50.1694C153.741 50.074 154.219 50.0024 154.744 50.0024C155.891 50.0024 156.775 50.2648 157.372 50.8135C157.969 51.3622 158.28 52.1017 158.28 53.0798C158.28 53.9625 157.993 54.6543 157.42 55.1553C156.847 55.6801 156.082 55.9187 155.15 55.9187L158.519 60.4991H156.966H156.99Z" fill="white"/>
<path d="M169.246 60.4991L164.85 52.9605C164.754 52.7936 164.635 52.5789 164.515 52.3403C164.372 52.0779 164.277 51.8632 164.181 51.72V60.4991H163.034V50.1694H164.492L168.72 57.3978C168.887 57.6602 169.007 57.8988 169.102 58.0896C169.198 58.2805 169.27 58.4236 169.294 58.4952V50.1455H170.44V60.4752H169.246V60.4991Z" fill="white"/>
<path d="M175.529 60.4991V50.1694H180.307V51.076H176.891V54.7021H179.972V55.6086H176.891V59.5687H180.307V60.4991H175.529Z" fill="white"/>
<path d="M186.805 60.6422C186.231 60.6422 185.754 60.5945 185.395 60.4991C185.037 60.4037 184.703 60.2605 184.392 60.0697L184.75 59.1154C184.989 59.2586 185.252 59.3778 185.539 59.4494C185.825 59.5448 186.184 59.5925 186.542 59.5925C187.139 59.5925 187.593 59.4255 187.952 59.0677C188.31 58.7099 188.477 58.2566 188.477 57.6602C188.477 57.2069 188.334 56.8252 188.071 56.5151C187.808 56.205 187.307 55.9187 186.566 55.6324C185.825 55.3462 185.3 54.9645 184.965 54.4873C184.631 54.0102 184.464 53.4854 184.464 52.9128C184.464 52.1017 184.726 51.4338 185.276 50.8612C185.801 50.2887 186.518 50.0024 187.378 50.0024C187.856 50.0024 188.262 50.0501 188.597 50.1455C188.931 50.241 189.242 50.3841 189.481 50.5511L189.146 51.4099C188.907 51.2668 188.668 51.1475 188.405 51.0759C188.143 50.9805 187.832 50.9328 187.522 50.9328C186.972 50.9328 186.566 51.0998 186.255 51.4338C185.945 51.7677 185.801 52.1972 185.801 52.7458C185.801 53.223 185.945 53.6047 186.255 53.8909C186.566 54.1772 187.068 54.4635 187.808 54.7497C188.549 55.036 189.074 55.4416 189.385 55.9426C189.719 56.4435 189.863 56.9922 189.863 57.5648C189.863 58.4713 189.576 59.2108 188.979 59.7595C188.405 60.3321 187.641 60.6184 186.733 60.6184" fill="white"/>
<path d="M196.528 60.6422C195.954 60.6422 195.477 60.5945 195.118 60.4991C194.76 60.4037 194.425 60.2605 194.115 60.0697L194.473 59.1154C194.712 59.2586 194.975 59.3778 195.262 59.4494C195.548 59.5448 195.907 59.5925 196.265 59.5925C196.862 59.5925 197.316 59.4255 197.674 59.0677C198.033 58.7099 198.2 58.2566 198.2 57.6602C198.2 57.2069 198.057 56.8252 197.794 56.5151C197.531 56.205 197.029 55.9187 196.289 55.6324C195.548 55.3462 195.023 54.9645 194.688 54.4873C194.354 54.0102 194.186 53.4854 194.186 52.9128C194.186 52.1017 194.449 51.4338 194.999 50.8612C195.524 50.2887 196.241 50.0024 197.101 50.0024C197.579 50.0024 197.985 50.0501 198.319 50.1455C198.654 50.241 198.965 50.3841 199.203 50.5511L198.869 51.4099C198.63 51.2668 198.391 51.1475 198.128 51.0759C197.866 50.9805 197.555 50.9328 197.244 50.9328C196.695 50.9328 196.289 51.0998 195.978 51.4338C195.668 51.7677 195.524 52.1972 195.524 52.7458C195.524 53.223 195.668 53.6047 195.978 53.8909C196.289 54.1772 196.79 54.4635 197.531 54.7497C198.272 55.036 198.797 55.4416 199.108 55.9426C199.442 56.4435 199.586 56.9922 199.586 57.5648C199.586 58.4713 199.299 59.2108 198.702 59.7595C198.128 60.3321 197.364 60.6184 196.456 60.6184" fill="white"/>
<path d="M203.05 5.39156H203.743C204.077 5.39156 204.292 5.34384 204.411 5.24842C204.531 5.153 204.603 5.03371 204.603 4.86672C204.603 4.7713 204.579 4.67587 204.507 4.58044C204.459 4.50888 204.364 4.43731 204.268 4.3896C204.173 4.34188 203.981 4.31803 203.695 4.31803H203.05V5.39156ZM202.5 7.34776V3.86477H203.695C204.101 3.86477 204.411 3.88862 204.579 3.96019C204.77 4.03176 204.913 4.12718 205.009 4.29417C205.128 4.46117 205.176 4.62816 205.176 4.79515C205.176 5.05757 205.08 5.27228 204.889 5.46313C204.698 5.65398 204.459 5.7494 204.149 5.77325C204.268 5.82097 204.364 5.89253 204.435 5.9641C204.579 6.10723 204.746 6.32195 204.961 6.65593L205.391 7.34776H204.698L204.388 6.79906C204.149 6.36966 203.934 6.08338 203.79 5.98795C203.695 5.91639 203.528 5.86868 203.336 5.86868H203.002V7.34776H202.429H202.5ZM203.934 2.83895C203.48 2.83895 203.026 2.95823 202.596 3.19679C202.166 3.43535 201.831 3.76934 201.569 4.19875C201.33 4.62815 201.21 5.08143 201.21 5.55855C201.21 6.03567 201.33 6.46508 201.569 6.89449C201.807 7.3239 202.142 7.65789 202.572 7.89645C203.002 8.13501 203.456 8.25429 203.934 8.25429C204.411 8.25429 204.841 8.13501 205.295 7.89645C205.725 7.65789 206.06 7.3239 206.299 6.89449C206.538 6.46508 206.657 6.01181 206.657 5.55855C206.657 5.10528 206.538 4.62815 206.299 4.19875C206.06 3.76934 205.725 3.43535 205.272 3.19679C204.841 2.95823 204.388 2.83895 203.934 2.83895ZM203.934 2.31412C204.483 2.31412 205.009 2.45726 205.534 2.74353C206.06 3.0298 206.466 3.43536 206.753 3.93633C207.039 4.46117 207.183 5.00986 207.183 5.55855C207.183 6.10724 207.039 6.65593 206.753 7.18076C206.466 7.7056 206.06 8.11115 205.558 8.37357C205.033 8.65984 204.507 8.80297 203.934 8.80297C203.36 8.80297 202.835 8.65984 202.309 8.37357C201.784 8.08729 201.401 7.68174 201.115 7.18076C200.828 6.65593 200.685 6.13109 200.685 5.55855C200.685 4.986 200.828 4.46117 201.115 3.93633C201.401 3.4115 201.807 3.00595 202.333 2.74353C202.859 2.45726 203.384 2.31412 203.934 2.31412Z" fill="white"/>
<path d="M80.1829 34.9731V3.02977H86.1315V31.0368H94.9709V34.9731H80.1829Z" fill="white"/>
<path d="M99.6056 34.973V9.94799H105.268V34.973H99.6056ZM102.449 5.63004C101.588 5.63004 100.848 5.36762 100.251 4.81893C99.6534 4.27024 99.3428 3.62612 99.3428 2.83887C99.3428 2.05163 99.6534 1.3598 100.251 0.811108C100.848 0.262419 101.588 0 102.449 0C103.309 0 104.097 0.262418 104.67 0.787251C105.268 1.31208 105.554 2.00391 105.554 2.83887C105.554 3.60227 105.244 4.27024 104.646 4.81893C104.049 5.36762 103.309 5.63004 102.449 5.63004Z" fill="white"/>
<path d="M107.418 45.422V41.6527C108.875 41.1517 109.974 40.2929 110.691 39.0763C111.408 37.8596 111.79 35.9988 111.79 33.4701V9.94798H117.452V32.8498C117.452 36.6429 116.496 39.6727 114.561 41.9629C112.65 44.253 110.261 45.3981 107.394 45.3981M114.633 5.63004C113.773 5.63004 113.032 5.36762 112.435 4.81893C111.838 4.27024 111.527 3.62612 111.527 2.83887C111.527 2.05163 111.838 1.3598 112.435 0.811108C113.032 0.262419 113.773 0 114.633 0C115.493 0 116.233 0.262419 116.831 0.811108C117.428 1.3598 117.738 2.02777 117.738 2.83887C117.738 3.64998 117.428 4.27024 116.831 4.81893C116.233 5.36762 115.493 5.63004 114.633 5.63004Z" fill="white"/>
<path d="M149.679 34.9731L147.648 13.8605C147.577 13.0971 147.529 12.3575 147.505 11.7134C147.505 11.0455 147.505 10.4729 147.505 10.0197C147.385 10.4729 147.242 10.9978 147.099 11.5703C146.955 12.1428 146.693 13.0971 146.31 14.4569C145.928 15.7928 145.188 18.3454 144.136 22.0908C143.061 25.8362 142.225 28.7944 141.604 30.9891C140.983 33.16 140.577 34.5199 140.386 34.997H137.041C136.492 33.0408 135.823 30.7506 135.058 28.1026C134.294 25.4545 133.553 22.8542 132.836 20.3016C132.12 17.749 131.57 15.8167 131.188 14.5046C130.806 13.1925 130.543 12.1667 130.4 11.4749C130.256 10.7592 130.137 10.2821 130.065 10.0435C130.041 10.4968 130.017 11.0216 129.993 11.5942C129.993 12.1667 129.922 12.9062 129.826 13.8366L127.772 34.997H122.803L126.386 3.07753H132.335L138.044 23.5461C138.188 24.1663 138.355 24.8581 138.522 25.6454C138.689 26.4088 138.809 26.9098 138.881 27.1245C138.976 26.7189 139.072 26.2656 139.215 25.7647C139.358 25.2637 139.549 24.5241 139.812 23.5699L145.713 3.10139H151.662L155.245 35.0208H149.679V34.9731Z" fill="white"/>
<path d="M169.986 12.9778C168.29 12.9778 166.952 13.6935 165.997 15.1487C165.041 16.58 164.563 18.751 164.563 21.6853L174.932 20.0869C174.932 17.6536 174.502 15.8644 173.665 14.7193C172.805 13.5742 171.587 13.0016 170.01 13.0016M164.874 24.5241C165.328 29.1761 167.621 31.4901 171.706 31.4901C173.068 31.4901 174.263 31.3708 175.29 31.1084C176.317 30.8698 177.225 30.512 178.037 30.0826L179.375 33.661C178.42 34.1858 177.249 34.6152 175.911 34.9492C174.573 35.2832 172.949 35.4264 171.109 35.4264C167.526 35.4264 164.683 34.3051 162.604 32.0388C160.526 29.7725 159.499 26.5519 159.499 22.3771C159.499 18.2023 160.454 15.1487 162.365 12.8824C164.277 10.616 166.881 9.47094 170.201 9.47094C173.522 9.47094 176.007 10.5445 177.703 12.6915C179.399 14.8386 180.235 18.0353 180.235 22.2817L164.898 24.5003L164.874 24.5241Z" fill="white"/>
<path d="M169.999 12.9966C168.303 12.9966 166.965 13.7123 166.009 15.1675C165.054 16.5989 164.576 18.7698 164.576 21.7041L174.944 20.1057C174.944 17.6724 174.514 15.8832 173.678 14.7381C172.818 13.593 171.6 13.0204 170.023 13.0204M164.887 24.5429C165.341 29.1949 167.634 31.5089 171.719 31.5089C173.081 31.5089 174.275 31.3896 175.303 31.1272C176.33 30.8886 177.238 30.5308 178.05 30.1014L179.388 33.6798C178.432 34.2046 177.262 34.6341 175.924 34.968C174.586 35.302 172.961 35.4452 171.122 35.4452C167.538 35.4452 164.695 34.3239 162.617 32.0576C160.539 29.7913 159.511 26.5707 159.511 22.3959C159.511 18.2211 160.467 15.1675 162.378 12.9012C164.289 10.6348 166.893 9.48975 170.214 9.48975C173.535 9.48975 176.019 10.5633 177.716 12.7103C179.412 14.8574 180.248 18.0541 180.248 22.3005L164.91 24.5191L164.887 24.5429Z" fill="white"/>
<path d="M194.33 35.4264C191.391 35.4264 189.002 34.2813 187.163 31.9672C185.323 29.6532 184.415 26.4565 184.415 22.3771C184.415 18.2977 185.347 15.1964 187.234 12.9062C189.098 10.616 191.487 9.47094 194.377 9.47094C195.811 9.47094 196.981 9.63793 197.913 9.94806C198.845 10.282 199.609 10.6876 200.183 11.1886L198.964 14.3853C198.558 14.0752 198.104 13.8127 197.579 13.6219C197.053 13.431 196.408 13.3118 195.62 13.3118C193.756 13.3118 192.371 14.099 191.487 15.6497C190.579 17.2003 190.149 19.4189 190.149 22.2578C190.149 25.0967 190.627 27.2437 191.558 28.8659C192.514 30.4881 193.828 31.2993 195.524 31.2993C196.289 31.2993 196.934 31.2038 197.459 31.0368C197.961 30.8698 198.463 30.5836 198.917 30.178L200.207 33.661C199.657 34.1858 198.893 34.6152 197.913 34.9254C196.934 35.2355 195.739 35.3786 194.306 35.3786" fill="white"/>
<defs>
<linearGradient id="paint0_linear_94_6" x1="148.285" y1="8.71685e-07" x2="119.866" y2="78.617" gradientUnits="userSpaceOnUse">
<stop stop-color="#ED1C24"/>
<stop offset="1" stop-color="white"/>
</linearGradient>
</defs>
</svg>
