<svg width="1219" height="357" viewBox="0 0 1219 357" fill="none" xmlns="http://www.w3.org/2000/svg">
<path fill-rule="evenodd" clip-rule="evenodd" d="M338.208 12.3154C393.431 34.5076 429.51 71.0881 429.51 112.546C429.51 160.954 380.177 202.9 308.756 222.775L298.693 207.899C356.125 189.853 395.149 154.004 395.149 112.546C395.149 79.2577 369.747 49.3837 329.986 29.7521C329.373 29.5083 328.514 29.0205 328.023 28.7767L338.331 12.3154H338.208ZM207.392 119.74L189.23 147.176C171.927 121.569 123.822 50.1153 108.359 25.6063C63.5674 45.2379 34.3608 76.819 34.3608 112.546C34.3608 153.516 72.6485 188.999 128.976 207.289L118.79 222.166C48.3505 202.046 0 160.466 0 112.546C0 64.6255 52.4002 19.6315 127.503 0.48774L207.392 119.74ZM300.534 0C309.983 2.68257 319.678 5.12127 328.882 8.65738L326.427 12.8032L325.937 13.4128L190.334 219.117C198.311 219.727 206.41 220.093 214.755 220.093C234.758 220.093 254.024 218.142 272.064 214.606L281.758 228.994C279.795 229.36 277.709 229.726 275.745 230.091C203.588 243.016 145.42 228.628 145.42 228.628L300.534 0Z" fill="#ED1C24"/>
<path d="M300.534 0C309.983 2.68257 319.678 5.12127 328.882 8.65738L326.427 12.8032L325.937 13.4128L190.334 219.117C198.311 219.727 206.41 220.093 214.755 220.093C234.758 220.093 254.024 218.142 272.064 214.606L281.758 228.994C279.795 229.36 277.709 229.726 275.745 230.091C203.588 243.016 145.42 228.628 145.42 228.628L300.534 0Z" fill="url(#paint0_linear_129_10)"/>
<path d="M518.859 356.158L508.598 313.745C508.317 312.481 508.035 311.217 507.895 309.953C507.754 308.689 507.473 307.706 507.333 306.863C507.333 307.565 507.052 308.408 506.911 309.25C506.911 310.093 506.489 311.498 505.927 313.745L495.525 356.158H488.357L474.16 295.347H482.594L491.309 339.305C491.59 340.709 491.871 342.254 492.011 343.518C492.152 344.922 492.292 345.765 492.433 346.327C492.433 345.484 492.714 344.641 492.855 343.799C492.995 343.097 493.417 341.552 493.979 339.305L504.521 295.347H510.706L521.108 339.305C521.389 340.569 521.67 341.833 521.951 343.377C522.232 344.782 522.373 345.765 522.373 346.327C522.513 345.484 522.794 344.361 522.935 343.097C523.076 341.833 523.357 340.569 523.638 339.305L532.774 295.347H540.365L526.168 356.158H518.859Z" fill="black"/>
<path d="M574.666 295.347H566.514V356.158H574.666V295.347Z" fill="black"/>
<path d="M619.927 299.139C616.975 299.139 614.586 299.56 613.04 300.402V325.963C614.164 326.384 615.991 326.524 618.24 326.524C623.16 326.524 626.815 325.401 629.204 323.013C631.594 320.626 632.859 317.255 632.859 312.761C632.859 303.633 628.502 299.139 619.927 299.139ZM633.14 356.157L613.18 327.788V356.157H604.887V297.734C606.574 296.751 608.823 296.049 611.353 295.347C614.024 294.785 616.835 294.364 619.927 294.364C626.674 294.364 631.875 295.908 635.389 299.139C638.903 302.369 640.73 306.722 640.73 312.48C640.73 317.677 639.044 321.749 635.67 324.699C632.297 327.788 627.799 329.193 622.317 329.193L642.136 356.157H633H633.14Z" fill="black"/>
<path d="M668.84 356.158V295.347H697.093V300.684H676.993V322.031H694.985V327.367H676.993V350.68H697.093V356.158H668.84Z" fill="black"/>
<path d="M789.444 356.158V327.367H766.533V356.158H758.38V295.347H766.533V322.031H789.444V295.347H797.597V356.158H789.444Z" fill="black"/>
<path d="M848.059 309.953C847.357 307.565 846.794 305.88 846.654 304.756C846.513 303.773 846.372 303.071 846.232 302.65C846.091 303.352 845.81 304.195 845.529 305.178C845.248 306.161 844.826 307.706 844.124 310.093L836.814 333.125H855.087L847.919 310.093L848.059 309.953ZM862.116 356.158L856.352 337.9H835.549L829.646 356.158H822.196L842.858 295.347H850.168L870.69 356.158H862.116Z" fill="black"/>
<path d="M910.328 299.139C907.376 299.139 904.986 299.56 903.44 300.402V325.963C904.565 326.384 906.392 326.524 908.641 326.524C913.561 326.524 917.215 325.401 919.605 323.013C921.995 320.626 923.26 317.255 923.26 312.761C923.26 303.633 918.902 299.139 910.328 299.139ZM923.681 356.157L903.721 327.788V356.157H895.428V297.734C897.115 296.751 899.364 296.049 901.894 295.347C904.565 294.785 907.376 294.364 910.468 294.364C917.215 294.364 922.416 295.908 925.93 299.139C929.444 302.369 931.272 306.722 931.272 312.48C931.272 317.677 929.585 321.749 926.211 324.699C922.838 327.788 918.34 329.193 912.858 329.193L932.677 356.157H923.541H923.681Z" fill="black"/>
<path d="M995.79 356.157L969.927 311.778C969.365 310.795 968.662 309.531 967.959 308.127C967.116 306.582 966.553 305.318 965.991 304.475V356.157H959.244V295.347H967.818L992.698 337.9C993.682 339.445 994.385 340.849 994.947 341.973C995.509 343.096 995.931 343.939 996.071 344.36V295.206H1002.82V356.017H995.79V356.157Z" fill="black"/>
<path d="M1032.76 356.158V295.347H1060.87V300.684H1040.77V322.031H1058.9V327.367H1040.77V350.68H1060.87V356.158H1032.76Z" fill="black"/>
<path d="M1099.1 357C1095.73 357 1092.92 356.719 1090.81 356.157C1088.7 355.596 1086.73 354.753 1084.91 353.629L1087.01 348.012C1088.42 348.854 1089.97 349.557 1091.65 349.978C1093.34 350.54 1095.45 350.821 1097.56 350.821C1101.07 350.821 1103.74 349.838 1105.85 347.731C1107.96 345.624 1108.94 342.956 1108.94 339.445C1108.94 336.777 1108.1 334.53 1106.55 332.704C1105.01 330.878 1102.05 329.193 1097.7 327.508C1093.34 325.822 1090.25 323.575 1088.28 320.766C1086.31 317.958 1085.33 314.868 1085.33 311.497C1085.33 306.722 1086.87 302.79 1090.11 299.419C1093.2 296.049 1097.42 294.364 1102.48 294.364C1105.29 294.364 1107.68 294.644 1109.65 295.206C1111.61 295.768 1113.44 296.611 1114.85 297.594L1112.88 302.65C1111.47 301.807 1110.07 301.105 1108.52 300.683C1106.97 300.122 1105.15 299.841 1103.32 299.841C1100.09 299.841 1097.7 300.824 1095.87 302.79C1094.04 304.756 1093.2 307.284 1093.2 310.514C1093.2 313.323 1094.04 315.57 1095.87 317.255C1097.7 318.941 1100.65 320.626 1105.01 322.311C1109.36 323.996 1112.46 326.384 1114.28 329.333C1116.25 332.282 1117.09 335.513 1117.09 338.883C1117.09 344.22 1115.41 348.574 1111.89 351.804C1108.52 355.174 1104.02 356.86 1098.68 356.86" fill="black"/>
<path d="M1156.31 357C1152.94 357 1150.12 356.719 1148.02 356.157C1145.91 355.596 1143.94 354.753 1142.11 353.629L1144.22 348.012C1145.63 348.854 1147.17 349.557 1148.86 349.978C1150.55 350.54 1152.65 350.821 1154.76 350.821C1158.28 350.821 1160.95 349.838 1163.06 347.731C1165.16 345.624 1166.15 342.956 1166.15 339.445C1166.15 336.777 1165.31 334.53 1163.76 332.704C1162.21 330.878 1159.26 329.193 1154.9 327.508C1150.55 325.822 1147.45 323.575 1145.49 320.766C1143.52 317.958 1142.53 314.868 1142.53 311.497C1142.53 306.722 1144.08 302.79 1147.31 299.419C1150.41 296.049 1154.62 294.364 1159.68 294.364C1162.49 294.364 1164.88 294.644 1166.85 295.206C1168.82 295.768 1170.65 296.611 1172.05 297.594L1170.08 302.65C1168.68 301.807 1167.27 301.105 1165.73 300.683C1164.18 300.122 1162.35 299.841 1160.53 299.841C1157.29 299.841 1154.9 300.824 1153.08 302.79C1151.25 304.756 1150.41 307.284 1150.41 310.514C1150.41 313.323 1151.25 315.57 1153.08 317.255C1154.9 318.941 1157.86 320.626 1162.21 322.311C1166.57 323.996 1169.66 326.384 1171.49 329.333C1173.46 332.282 1174.3 335.513 1174.3 338.883C1174.3 344.22 1172.61 348.574 1169.1 351.804C1165.73 355.174 1161.23 356.86 1155.89 356.86" fill="black"/>
<path d="M1194.68 31.74H1198.76C1200.73 31.74 1201.99 31.4592 1202.69 30.8974C1203.4 30.3356 1203.82 29.6334 1203.82 28.6503C1203.82 28.0886 1203.68 27.5268 1203.26 26.965C1202.98 26.5437 1202.41 26.1224 1201.85 25.8415C1201.29 25.5606 1200.16 25.4202 1198.48 25.4202H1194.68V31.74ZM1191.45 43.2562V22.7519H1198.48C1200.87 22.7519 1202.69 22.8923 1203.68 23.3136C1204.8 23.7349 1205.65 24.2967 1206.21 25.2798C1206.91 26.2628 1207.19 27.2459 1207.19 28.229C1207.19 29.7738 1206.63 31.0378 1205.51 32.1614C1204.38 33.2849 1202.98 33.8466 1201.15 33.9871C1201.85 34.268 1202.41 34.6892 1202.84 35.1106C1203.68 35.9532 1204.66 37.2172 1205.93 39.1834L1208.46 43.2562H1204.38L1202.55 40.026C1201.15 37.4981 1199.88 35.8128 1199.04 35.251C1198.48 34.8297 1197.49 34.5488 1196.37 34.5488H1194.4V43.2562H1191.03H1191.45ZM1199.88 16.7129C1197.21 16.7129 1194.54 17.4151 1192.01 18.8195C1189.48 20.2239 1187.51 22.19 1185.97 24.718C1184.56 27.2459 1183.86 29.9143 1183.86 32.7231C1183.86 35.5319 1184.56 38.0599 1185.97 40.5878C1187.37 43.1157 1189.34 45.0819 1191.87 46.4863C1194.4 47.8907 1197.07 48.5929 1199.88 48.5929C1202.69 48.5929 1205.22 47.8907 1207.9 46.4863C1210.43 45.0819 1212.39 43.1157 1213.8 40.5878C1215.2 38.0599 1215.91 35.3915 1215.91 32.7231C1215.91 30.0547 1215.2 27.2459 1213.8 24.718C1212.39 22.19 1210.43 20.2239 1207.76 18.8195C1205.22 17.4151 1202.55 16.7129 1199.88 16.7129ZM1199.88 13.6232C1203.12 13.6232 1206.21 14.4658 1209.3 16.1511C1212.39 17.8364 1214.78 20.2239 1216.47 23.1731C1218.16 26.2628 1219 29.493 1219 32.7231C1219 35.9532 1218.16 39.1834 1216.47 42.2731C1214.78 45.3628 1212.39 47.7502 1209.44 49.2951C1206.35 50.9804 1203.26 51.823 1199.88 51.823C1196.51 51.823 1193.42 50.9804 1190.33 49.2951C1187.23 47.6098 1184.98 45.2223 1183.3 42.2731C1181.61 39.1834 1180.77 36.0937 1180.77 32.7231C1180.77 29.3525 1181.61 26.2628 1183.3 23.1731C1184.98 20.0835 1187.37 17.696 1190.47 16.1511C1193.56 14.4658 1196.65 13.6232 1199.88 13.6232Z" fill="black"/>
<path d="M471.771 205.886V17.8362H506.772V182.713H558.78V205.886H471.771Z" fill="black"/>
<path d="M586.049 205.886V58.5637H619.362V205.886H586.049ZM602.776 33.144C597.716 33.144 593.358 31.5991 589.844 28.369C586.33 25.1389 584.503 21.347 584.503 16.7124C584.503 12.0779 586.33 8.00511 589.844 4.77498C593.358 1.54486 597.716 0 602.776 0C607.836 0 612.475 1.54485 615.848 4.63454C619.362 7.72422 621.049 11.797 621.049 16.7124C621.049 21.2065 619.222 25.1389 615.708 28.369C612.193 31.5991 607.836 33.144 602.776 33.144Z" fill="black"/>
<path d="M632.014 267.399V245.209C640.589 242.26 647.055 237.204 651.271 230.041C655.488 222.879 657.737 211.925 657.737 197.038V58.5637H691.051V193.387C691.051 215.717 685.428 233.553 674.043 247.035C662.797 260.517 648.741 267.258 631.874 267.258M674.464 33.144C669.404 33.144 665.047 31.5991 661.533 28.369C658.018 25.1389 656.191 21.347 656.191 16.7124C656.191 12.0779 658.018 8.00511 661.533 4.77498C665.047 1.54486 669.404 0 674.464 0C679.525 0 683.882 1.54486 687.396 4.77498C690.91 8.00511 692.737 11.9375 692.737 16.7124C692.737 21.4874 690.91 25.1389 687.396 28.369C683.882 31.5991 679.525 33.144 674.464 33.144Z" fill="black"/>
<path d="M880.665 205.886L868.717 81.5965C868.296 77.1024 868.015 72.7487 867.874 68.9568C867.874 65.0245 867.874 61.654 867.874 58.9856C867.171 61.654 866.328 64.7436 865.484 68.1142C864.641 71.4848 863.095 77.1024 860.846 85.1075C858.597 92.9722 854.239 107.999 848.055 130.048C841.729 152.098 836.81 169.512 833.155 182.433C829.5 195.213 827.111 203.218 825.986 206.027H806.308C803.075 194.511 799.139 181.028 794.641 165.439C790.143 149.851 785.786 134.543 781.569 119.515C777.352 104.488 774.119 93.1126 771.87 85.3884C769.621 77.6642 768.075 71.6252 767.231 67.5525C766.388 63.3393 765.685 60.5304 765.263 59.126C765.123 61.7944 764.982 64.8841 764.842 68.2547C764.842 71.6252 764.42 75.9789 763.858 81.4561L751.769 206.027H722.532L743.617 18.1174H778.617L812.211 138.615C813.055 142.267 814.039 146.34 815.023 150.974C816.006 155.468 816.709 158.417 817.131 159.681C817.693 157.294 818.255 154.626 819.099 151.676C819.942 148.727 821.067 144.373 822.613 138.756L857.332 18.2578H892.332L913.416 206.167H880.665V205.886Z" fill="black"/>
<path d="M1000.15 76.4001C990.168 76.4001 982.297 80.6133 976.674 89.1801C971.051 97.6065 968.24 110.387 968.24 127.661L1029.24 118.251C1029.24 103.926 1026.71 93.3934 1021.79 86.6522C1016.73 79.9111 1009.57 76.5405 1000.29 76.5405M970.068 144.373C972.738 171.759 986.232 185.382 1010.27 185.382C1018.28 185.382 1025.31 184.68 1031.35 183.135C1037.4 181.73 1042.74 179.624 1047.52 177.096L1055.39 198.162C1049.77 201.252 1042.88 203.78 1035.01 205.746C1027.14 207.712 1017.58 208.555 1006.75 208.555C985.67 208.555 968.943 201.954 956.714 188.612C944.485 175.27 938.441 156.311 938.441 131.734C938.441 107.157 944.063 89.1801 955.309 75.8383C966.554 62.4965 981.875 55.7553 1001.41 55.7553C1020.95 55.7553 1035.57 62.0752 1045.55 74.7148C1055.53 87.3544 1060.45 106.173 1060.45 131.172L970.208 144.233L970.068 144.373Z" fill="black"/>
<path d="M1000.22 76.5108C990.243 76.5108 982.371 80.724 976.749 89.2908C971.126 97.7173 968.315 110.497 968.315 127.772L1029.32 118.362C1029.32 104.037 1026.79 93.5041 1021.87 86.7629C1016.81 80.0218 1009.64 76.6512 1000.36 76.6512M970.142 144.484C972.813 171.87 986.307 185.493 1010.34 185.493C1018.36 185.493 1025.38 184.79 1031.43 183.246C1037.47 181.841 1042.81 179.735 1047.59 177.207L1055.46 198.273C1049.84 201.362 1042.95 203.89 1035.08 205.856C1027.21 207.823 1017.65 208.665 1006.83 208.665C985.745 208.665 969.018 202.065 956.789 188.723C944.56 175.381 938.516 156.421 938.516 131.844C938.516 107.267 944.138 89.2909 955.383 75.949C966.628 62.6072 981.95 55.866 1001.49 55.866C1021.03 55.866 1035.64 62.1859 1045.62 74.8255C1055.6 87.4651 1060.52 106.284 1060.52 131.283L970.283 144.344L970.142 144.484Z" fill="black"/>
<path d="M1143.38 208.555C1126.09 208.555 1112.03 201.813 1101.21 188.191C1090.38 174.568 1085.04 155.749 1085.04 131.734C1085.04 107.718 1090.53 89.461 1101.63 75.9787C1112.59 62.4965 1126.65 55.7553 1143.66 55.7553C1152.09 55.7553 1158.98 56.7384 1164.46 58.5641C1169.94 60.5303 1174.44 62.9178 1177.81 65.867L1170.65 84.6861C1168.26 82.8603 1165.59 81.3155 1162.49 80.1919C1159.4 79.0684 1155.61 78.3662 1150.97 78.3662C1140 78.3662 1131.85 83.0007 1126.65 92.1294C1121.31 101.258 1118.78 114.319 1118.78 131.031C1118.78 147.744 1121.59 160.384 1127.07 169.933C1132.69 179.483 1140.42 184.258 1150.4 184.258C1154.9 184.258 1158.7 183.697 1161.79 182.714C1164.74 181.73 1167.69 180.045 1170.36 177.658L1177.95 198.162C1174.72 201.252 1170.22 203.78 1164.46 205.605C1158.7 207.431 1151.67 208.274 1143.24 208.274" fill="black"/>
<defs>
<linearGradient id="paint0_linear_129_10" x1="872.467" y1="5.1316e-06" x2="705.089" y2="462.758" gradientUnits="userSpaceOnUse">
<stop stop-color="#ED1C24"/>
<stop offset="1" stop-color="#0E0102"/>
</linearGradient>
</defs>
</svg>
