<svg width="80" height="75" viewBox="0 0 80 75" fill="none" xmlns="http://www.w3.org/2000/svg">
<path d="M10.2706 0.00239909C9.91527 -0.01939 9.56657 0.108233 9.31417 0.34481L5.32564 4.08018C5.07656 4.31364 4.94704 4.63738 4.96365 4.97046C4.98357 5.30041 5.15295 5.6117 5.42859 5.81714L37.3299 29.7952L18.1175 50.2902L6.96912 44.4412C6.48093 44.1829 5.87315 44.2607 5.47467 44.6311L0.363649 49.431C-0.121216 49.8855 -0.121216 50.6264 0.363649 51.0808L10.2172 60.3167V60.3198C10.2272 60.3322 10.2372 60.3447 10.2471 60.3571L15.6172 65.3843L25.5005 74.6576V74.6545C25.7363 74.8755 26.0551 75 26.3873 75C26.7194 75 27.0382 74.8755 27.274 74.6545L32.3883 69.8546H32.385C32.7835 69.4841 32.8699 68.9114 32.5976 68.4538L26.3507 58.0011L48.2131 39.9933L73.795 69.9073H73.7917C74.0142 70.1688 74.3463 70.3275 74.7016 70.3462C75.057 70.3618 75.4057 70.2373 75.6581 70.0007L79.6366 66.2622H79.6333C79.9754 65.9447 80.0883 65.4716 79.9289 65.0452L65.0873 26.0881L71.9983 20.3948C74.1172 18.6516 75.6149 15.956 76.1895 13.1731C76.764 10.3871 76.3987 7.39261 74.26 5.38798C73.1906 4.38566 71.8589 3.80043 70.4209 3.52965C68.9829 3.25887 67.442 3.31176 65.9542 3.57946C62.9818 4.11487 60.1025 5.50942 58.2395 7.49851L52.1587 13.9856L10.613 0.071278L10.6163 0.0681654C10.5067 0.0308116 10.3905 0.00902181 10.2742 0.00279579L10.2706 0.00239909ZM10.523 2.5238L50.3854 15.8779L38.9811 28.0399L8.07536 4.81802L10.523 2.5238ZM68.2222 5.69889C69.9624 5.67088 71.4967 6.10667 72.4996 7.04673C73.828 8.29807 74.2099 10.4397 73.7383 12.7307C73.2667 15.0248 71.9284 17.347 70.3575 18.6389L62.8653 24.8085V24.8053C62.8586 24.8116 62.8553 24.8147 62.8487 24.8209L47.6049 37.3749C47.595 37.3812 47.5883 37.3843 47.5817 37.3905C47.5684 37.3998 47.5584 37.4123 47.5485 37.4247L23.9926 56.8272C23.9627 56.849 23.9328 56.8739 23.9062 56.8988L16.5602 62.9532L12.8406 59.4762L60.1251 9.04568C61.5066 7.57329 63.9808 6.32195 66.4284 5.87992C67.0394 5.77097 67.6443 5.70823 68.2222 5.69889ZM63.0679 27.7533L77.3085 65.1286L74.8741 67.4134L50.0931 38.4428L63.0679 27.7533ZM6.57436 46.9127L16.4381 52.0862L11.0747 57.8075L3.01458 50.2589L6.57436 46.9127ZM24.4281 59.5791L29.951 68.8213L26.3875 72.1613L18.3241 64.6127L24.4281 59.5791Z" fill="white"/>
</svg>
