<svg width="80" height="75" viewBox="0 0 80 75" fill="none" xmlns="http://www.w3.org/2000/svg">
<path d="M70.475 31.005L65.117 4.2749C64.62 1.7975 62.377 0 59.782 0H20.219C17.624 0 15.381 1.7975 14.884 4.2749L9.526 31.005C3.753 31.7121 0 35.4005 0 40.6403V56.5309C0 58.9966 2.063 61.0022 4.597 61.0022H7.829V70.6638C7.829 73.0547 9.829 75 12.287 75H18.486C20.945 75 22.945 73.0547 22.945 70.6638V61.0022H57.34V70.6638C57.34 73.0547 59.34 75 61.798 75H67.997C70.456 75 72.456 73.0547 72.456 70.6638V61.0022H75.403C77.937 61.0022 80 58.9966 80 56.5309V40.6403C80 35.4005 76.247 31.7121 70.475 31.005ZM11.59 30.8717L16.847 4.64744C17.161 3.08241 18.579 1.94535 20.219 1.94535H59.782C61.422 1.94535 62.84 3.08143 63.154 4.64744L68.411 30.8717H11.59ZM20.945 70.6628C20.945 71.9808 19.841 73.0537 18.486 73.0537H12.287C10.932 73.0537 9.829 71.9808 9.829 70.6628V61.0013H20.945V70.6628ZM70.456 70.6628C70.456 71.9808 69.352 73.0537 67.997 73.0537H61.798C60.443 73.0537 59.34 71.9808 59.34 70.6628V61.0013H70.456V70.6628ZM78 56.5309C78 57.9237 76.835 59.0569 75.403 59.0569H4.597C3.165 59.0569 2 57.9237 2 56.5309V40.6403C2 34.8655 7.167 32.8171 11.591 32.8171H68.409C72.833 32.8171 78 34.8655 78 40.6403V56.5309Z" fill="white"/>
<path d="M56.508 41.7277H23.492C22.939 41.7277 22.492 42.1635 22.492 42.7004C22.492 43.2373 22.939 43.6731 23.492 43.6731H56.508C57.061 43.6731 57.508 43.2373 57.508 42.7004C57.508 42.1635 57.061 41.7277 56.508 41.7277Z" fill="white"/>
<path d="M56.508 47.7476H23.492C22.939 47.7476 22.492 48.1834 22.492 48.7203C22.492 49.2572 22.939 49.693 23.492 49.693H56.508C57.061 49.693 57.508 49.2572 57.508 48.7203C57.508 48.1834 57.061 47.7476 56.508 47.7476Z" fill="white"/>
<path d="M56.508 53.7665H23.492C22.939 53.7665 22.492 54.2023 22.492 54.7392C22.492 55.2761 22.939 55.7119 23.492 55.7119H56.508C57.061 55.7119 57.508 55.2761 57.508 54.7392C57.508 54.2023 57.061 53.7665 56.508 53.7665Z" fill="white"/>
<path d="M12.873 39.9604C9.059 39.9604 5.956 42.9786 5.956 46.6884C5.956 50.3981 9.059 53.4164 12.873 53.4164C16.687 53.4164 19.791 50.3981 19.791 46.6884C19.791 42.9786 16.688 39.9604 12.873 39.9604ZM12.873 51.472C10.162 51.472 7.956 49.3263 7.956 46.6893C7.956 44.0524 10.162 41.9067 12.873 41.9067C15.585 41.9067 17.791 44.0524 17.791 46.6893C17.791 49.3263 15.585 51.472 12.873 51.472Z" fill="white"/>
<path d="M67.025 39.9604C63.211 39.9604 60.108 42.9786 60.108 46.6884C60.108 50.3981 63.211 53.4164 67.025 53.4164C70.839 53.4164 73.943 50.3981 73.943 46.6884C73.943 42.9786 70.84 39.9604 67.025 39.9604ZM67.025 51.472C64.314 51.472 62.108 49.3263 62.108 46.6893C62.108 44.0524 64.314 41.9067 67.025 41.9067C69.737 41.9067 71.943 44.0524 71.943 46.6893C71.943 49.3263 69.737 51.472 67.025 51.472Z" fill="white"/>
<path d="M54.721 4.70872H24.444C21.788 4.70872 19.534 6.55777 19.087 9.10521L15.948 26.9723C15.898 27.2553 15.979 27.5442 16.169 27.763C16.359 27.9819 16.639 28.1083 16.934 28.1083H62.23C62.525 28.1083 62.804 27.9819 62.995 27.763C63.184 27.5432 63.266 27.2543 63.216 26.9723L60.078 9.10521C59.631 6.5568 57.377 4.70872 54.721 4.70872ZM18.119 26.162L21.057 9.43202C21.34 7.82225 22.765 6.65407 24.444 6.65407H54.72C56.399 6.65407 57.824 7.82225 58.107 9.43202L61.045 26.162H18.119Z" fill="white"/>
<path d="M30.05 11.0048C29.656 10.6284 29.022 10.6333 28.636 11.0185C28.249 11.4027 28.255 12.0184 28.65 12.3938L38.527 21.8122C38.721 21.998 38.974 22.0904 39.227 22.0904C39.486 22.0904 39.746 21.9931 39.941 21.7986C40.328 21.4144 40.322 20.7987 39.927 20.4232L30.05 11.0048Z" fill="white"/>
<path d="M39.334 11.0048C38.94 10.6284 38.306 10.6333 37.92 11.0185C37.533 11.4027 37.539 12.0184 37.934 12.3938L47.81 21.8122C48.004 21.998 48.257 22.0904 48.51 22.0904C48.769 22.0904 49.029 21.9931 49.224 21.7986C49.611 21.4144 49.605 20.7987 49.21 20.4232L39.334 11.0048Z" fill="white"/>
</svg>
