<svg width="75" height="75" viewBox="0 0 75 75" fill="none" xmlns="http://www.w3.org/2000/svg">
<path d="M74.1195 32.9597L62.7658 29.809C62.2703 28.1616 61.6107 26.5746 60.8004 25.078L66.6163 14.8428C66.8841 14.374 66.8038 13.7847 66.4221 13.403L61.6107 8.59164C61.229 8.20995 60.6397 8.12959 60.1676 8.39745L49.9385 14.2167C48.4151 13.3897 46.828 12.7301 45.2008 12.2446L42.0702 0.880545C41.9263 0.361569 41.4542 0 40.9151 0H34.1115C33.5724 0 33.1003 0.358261 32.9563 0.880545L29.8123 12.2343C28.165 12.7332 26.578 13.3895 25.0813 14.1997L14.8462 8.38382C14.3774 8.11596 13.7881 8.19632 13.4065 8.57801L8.59505 13.3894C8.21336 13.7711 8.133 14.3604 8.40086 14.8325L14.2167 25.0548C13.3931 26.5715 12.7335 28.162 12.248 29.7959L0.880543 32.9297C0.361569 33.0737 0 33.5458 0 34.0849V40.8885C0 41.4276 0.35826 41.8997 0.880543 42.0437L12.2343 45.1877C12.7331 46.835 13.3894 48.422 14.1997 49.9187L8.3838 60.1573C8.11594 60.626 8.1963 61.2153 8.57799 61.597L13.3894 66.4084C13.7711 66.7901 14.3604 66.8705 14.8325 66.6026L25.0616 60.7834C26.585 61.6104 28.1721 62.27 29.7993 62.7555L32.9298 74.1161C33.0738 74.6384 33.5459 75 34.085 75H40.8819C41.421 75 41.8931 74.6417 42.0371 74.1195L45.1878 62.7657C46.8351 62.2702 48.4221 61.6105 49.9188 60.8003L60.1539 66.6162C60.6226 66.884 61.212 66.8037 61.5936 66.422L66.405 61.6106C66.7867 61.2289 66.8671 60.6396 66.5992 60.1675L60.78 49.9383C61.607 48.4149 62.2666 46.8278 62.7521 45.2006L74.1127 42.0701C74.6384 41.9261 75 41.454 75 40.9149V34.118C75 33.5756 74.6418 33.1037 74.1195 32.9597ZM72.5995 40.0009L61.4703 43.0679C61.0585 43.1817 60.7404 43.5031 60.6299 43.915C60.1311 45.7866 59.371 47.6114 58.3733 49.3357C58.2661 49.5199 58.2125 49.7375 58.2125 49.9485C58.2125 50.156 58.2661 50.3603 58.3699 50.5411L64.0685 60.5594L60.5495 64.0784L50.5218 58.3798C50.1502 58.1688 49.6982 58.1722 49.3299 58.3831C47.639 59.3574 45.8142 60.1175 43.9025 60.6398C43.494 60.7503 43.1759 61.0684 43.0621 61.4769L39.975 72.5966L34.9995 72.5999L31.9326 61.4708C31.8187 61.0589 31.4973 60.7409 31.0855 60.6304C29.2138 60.1315 27.389 59.3714 25.6647 58.3737C25.3031 58.1627 24.8243 58.1627 24.4594 58.3703L14.4411 64.069L10.9221 60.55L16.6208 50.5222C16.8317 50.1506 16.8284 49.6986 16.6174 49.3303C15.6431 47.6394 14.8831 45.8146 14.3607 43.9028C14.2502 43.4944 13.9322 43.1763 13.5237 43.0624L2.40053 39.9787V34.9999L13.5297 31.9296C13.9415 31.8158 14.2596 31.4943 14.3701 31.0825C14.8723 29.1975 15.6324 27.3693 16.6268 25.6484C16.841 25.2801 16.841 24.8247 16.6301 24.4564L10.9315 14.4415L14.4505 10.9225L24.4782 16.6212C24.8498 16.8321 25.3019 16.8288 25.6701 16.6178C27.361 15.6435 29.1858 14.8835 31.0976 14.3611C31.506 14.2506 31.8241 13.9326 31.938 13.5241L35.0184 2.40435H39.9972L43.0675 13.5335C43.1813 13.9453 43.5027 14.2634 43.9145 14.3739C45.7862 14.8728 47.611 15.6329 49.3353 16.6306C49.6969 16.8415 50.1757 16.8415 50.5406 16.634L60.5589 10.9353L64.0779 14.4543L58.3793 24.4821C58.1683 24.8537 58.1717 25.3057 58.3826 25.674C59.3569 27.3649 60.1169 29.1897 60.6393 31.1014C60.7498 31.5099 61.0679 31.828 61.4763 31.9418L72.5995 35.0289L72.5995 40.0009ZM50.6755 24.0135C54.3384 27.5927 56.3541 32.3807 56.3541 37.4998C56.3541 47.2532 49.0416 55.3224 39.3449 56.2635C39.3047 56.2669 39.2679 56.2702 39.2277 56.2702C38.6184 56.2702 38.096 55.8048 38.0358 55.1854C37.9722 54.5258 38.4543 53.9399 39.1139 53.8763C47.5748 53.0526 53.9528 46.0147 53.9528 37.5006C53.9528 33.0341 52.1916 28.852 48.9974 25.732C48.522 25.2699 48.5153 24.5099 48.9774 24.0344C49.4394 23.5589 50.1995 23.5523 50.6749 24.0143L50.6755 24.0135ZM30.4255 53.7221C30.2112 54.1339 29.7927 54.3683 29.3608 54.3683C29.1733 54.3683 28.9858 54.3248 28.8083 54.231C22.5404 50.9732 18.6469 44.5616 18.6469 37.4996C18.6469 29.427 23.7764 22.2553 31.4106 19.6504C32.0367 19.4361 32.7197 19.7709 32.934 20.4004C33.1483 21.0265 32.8135 21.7095 32.184 21.9238C25.5244 24.1972 21.048 30.455 21.048 37.4998C21.048 43.6606 24.4464 49.259 29.9177 52.1047C30.5036 52.4094 30.7347 53.1359 30.4266 53.7219L30.4255 53.7221ZM45.7272 36.0572C45.5129 35.6856 45.1178 35.4545 44.686 35.4545H40.3266L48.4996 19.9659C48.6972 19.5943 48.6838 19.1456 48.4662 18.7874C48.2485 18.4257 47.8601 18.2081 47.4383 18.2081H36.3794C35.827 18.2081 35.3448 18.5865 35.2142 19.1222L29.8671 40.9691C29.7801 41.3273 29.8604 41.7057 30.0881 41.997C30.3158 42.2883 30.664 42.4557 31.0323 42.4557H35.7868L31.7589 56.4777C31.5915 57.0603 31.8828 57.673 32.442 57.9108C32.596 57.9777 32.7567 58.0079 32.914 58.0079C33.3292 58.0079 33.731 57.7902 33.952 57.4119L45.724 37.2587C45.9382 36.887 45.9415 36.4288 45.7272 36.0572ZM36.7169 47.9235L38.5384 41.5854C38.6421 41.2238 38.5718 40.832 38.3442 40.5306C38.1165 40.2293 37.7616 40.0519 37.3866 40.0519L32.5618 40.0552L37.323 20.6083H45.4491L37.2761 36.0935C37.0785 36.4651 37.0919 36.9138 37.3096 37.2721C37.5272 37.6337 37.9156 37.8513 38.3374 37.8513H42.5964L36.7169 47.9235Z" fill="white"/>
</svg>
