<svg width="80" height="75" viewBox="0 0 80 75" fill="none" xmlns="http://www.w3.org/2000/svg">
<path d="M27.7193 35.9849L50.4739 46.5793C50.6041 46.6398 50.7448 46.6685 50.8856 46.6685C50.9735 46.6685 51.058 46.6558 51.1424 46.6303C51.2339 46.6144 51.3254 46.5921 51.4134 46.5507L73.8086 35.6024C74.1006 35.4591 74.2836 35.1789 74.28 34.8764L74.0021 11.7481C73.9986 11.557 73.9141 11.3882 73.791 11.2481C73.71 11.0889 73.5834 10.952 73.4075 10.866L51.6104 0.0995279C51.3429 -0.0310361 51.0228 -0.0342156 50.7518 0.0963434L27.4343 11.4106C27.2759 11.4871 27.1387 11.6049 27.0508 11.7577C27.0437 11.7673 27.0367 11.78 27.0332 11.7896C26.9734 11.9074 26.9452 12.0348 26.9487 12.1558L27.2302 35.2653C27.2337 35.571 27.4238 35.8448 27.7193 35.9849ZM72.4755 34.4054L51.8007 44.5124L51.9837 23.0528L72.2189 12.901L72.4755 34.4054ZM51.1747 1.74324L71.1109 11.5893L51.0621 21.649L29.8172 12.1054L51.1747 1.74324ZM50.1789 23.0756L49.9995 44.523L29.0293 34.7592L28.7724 13.4553L50.1789 23.0756Z" fill="white"/>
<path d="M3.14959 75H10.1479C11.6855 75 12.9663 73.9969 13.2407 72.6753C16.4883 72.7486 28.9479 73.0193 40.5936 73.1594C40.6956 73.1594 40.8012 73.1626 40.9068 73.1626C48.1338 73.1626 53.8973 70.1246 53.9324 70.1055L77.0383 58.307C79.7758 56.8072 80.8031 53.7851 79.3219 51.5688C78.5935 50.4766 77.3832 49.7441 75.9124 49.5085C74.4839 49.2792 72.9779 49.5467 71.7112 50.2378L57.7704 56.9983C57.5311 56.2722 57.1195 55.5971 56.5108 55.0463C55.5467 54.1706 54.2625 53.6897 52.8163 53.6897H52.8058C52.6967 53.6992 41.8275 54.5909 37.8345 53.9954C36.1139 53.7406 34.9141 52.9318 33.644 52.0752C32.0852 51.0274 30.4984 49.9479 27.9685 49.9766C24.3761 50.0212 16.1112 53.1324 13.3035 54.2342V53.4572C13.3035 51.8873 11.8891 50.6072 10.1544 50.6072L3.14909 50.6008C1.41444 50.6008 0 51.8778 0 53.4509V72.1501C0 73.7201 1.41143 75 3.14959 75ZM13.301 56.0048C14.7964 55.4093 24.381 51.6453 27.9939 51.6008C29.8728 51.569 31.129 52.4096 32.568 53.3777C33.891 54.2694 35.3898 55.2788 37.5432 55.6005C41.7584 56.2278 52.5144 55.3489 52.8873 55.3139C53.774 55.3139 54.6079 55.6291 55.2342 56.1959C55.8605 56.7627 56.2053 57.5206 56.2053 58.3231C56.2053 59.979 54.717 61.3292 52.8768 61.3292L34.6187 61.4343C34.1191 61.4375 33.7215 61.8037 33.725 62.2559C33.7285 62.7049 34.1296 63.0647 34.6257 63.0647H34.6328L52.88 62.9596C55.5471 62.9596 57.7426 61.1032 57.9784 58.7434L72.5948 51.6518C73.5273 51.1423 74.5934 50.948 75.5891 51.1104C76.5426 51.2633 77.3167 51.725 77.7741 52.4097C78.7382 53.8554 77.9887 55.8743 76.1239 56.8965L53.0216 68.6951C52.9689 68.7237 47.6418 71.5292 40.9111 71.5292C40.8161 71.5292 40.7141 71.5292 40.6191 71.526C28.9977 71.3859 16.5665 71.1152 13.3013 71.042L13.301 56.0048ZM1.80208 53.4509C1.80208 52.779 2.40727 52.2313 3.14968 52.2313H10.148C10.8904 52.2313 11.4956 52.779 11.4956 53.4509V72.1502C11.4956 72.8221 10.8904 73.3698 10.148 73.3698H3.14968C2.40727 73.3698 1.80208 72.8221 1.80208 72.1502V53.4509Z" fill="white"/>
</svg>
