<svg width="80" height="75" viewBox="0 0 80 75" fill="none" xmlns="http://www.w3.org/2000/svg">
<path fill-rule="evenodd" clip-rule="evenodd" d="M5.02045 1.8712C3.2622 1.8712 1.83481 3.33054 1.83481 5.12003V56.1958C1.83481 57.9889 3.26577 59.4446 5.02045 59.4446H74.983C76.7413 59.4446 78.1687 57.9852 78.1687 56.1958V5.12003C78.1687 3.32691 76.7377 1.8712 74.983 1.8712H5.02045ZM74.9795 61.3158H5.02045C2.25255 61.3158 0 59.0186 0 56.1958V5.12003C0 2.29723 2.25255 0 5.02045 0H74.983C77.7509 0 80 2.29723 80 5.12003V56.1958C80 59.0186 77.7508 61.3158 74.9795 61.3158Z" fill="white"/>
<path fill-rule="evenodd" clip-rule="evenodd" d="M25.9657 73.1323H54.0342C53.599 70.4871 51.336 68.4668 48.6238 68.4668H31.3791C28.6635 68.4668 26.4009 70.4872 25.9657 73.1323ZM55.0262 75H24.9728C24.468 75 24.0572 74.581 24.0572 74.0662C24.0572 69.9475 27.3438 66.5992 31.379 66.5992H48.6236C52.6622 66.5992 55.9419 69.9511 55.9419 74.0662C55.9419 74.5811 55.5345 75 55.0262 75Z" fill="white"/>
<path fill-rule="evenodd" clip-rule="evenodd" d="M32.5461 68.4666C32.0413 68.4666 31.6305 68.0476 31.6305 67.5328V60.3818C31.6305 59.867 32.0378 59.448 32.5461 59.448C33.0544 59.448 33.4617 59.867 33.4617 60.3818V67.5328C33.4617 68.0477 33.0544 68.4666 32.5461 68.4666Z" fill="white"/>
<path fill-rule="evenodd" clip-rule="evenodd" d="M47.4538 68.4666C46.949 68.4666 46.5382 68.0476 46.5382 67.5328V60.3818C46.5382 59.867 46.949 59.448 47.4538 59.448C47.9586 59.448 48.3694 59.867 48.3694 60.3818V67.5328C48.3694 68.0477 47.9586 68.4666 47.4538 68.4666Z" fill="white"/>
<path fill-rule="evenodd" clip-rule="evenodd" d="M13.3619 12.945C12.8849 12.945 12.4323 13.1368 12.0911 13.4812C11.7534 13.8256 11.5654 14.2872 11.5654 14.7772C11.5654 15.2636 11.7499 15.7252 12.0911 16.0697L15.5727 19.6203L19.0578 16.0697C19.3955 15.7252 19.5835 15.2637 19.5835 14.7772C19.5835 14.2872 19.3955 13.8291 19.0578 13.4812C18.7201 13.1368 18.2675 12.945 17.7905 12.945C17.3135 12.945 16.8609 13.1368 16.5232 13.4812L16.2237 13.7865C15.8651 14.1487 15.2872 14.1487 14.9286 13.7865L14.6292 13.4812C14.2915 13.1368 13.8389 12.945 13.3619 12.945ZM15.5762 21.8749C15.343 21.8749 15.1062 21.7826 14.9287 21.6015L10.7995 17.3905C10.1136 16.691 9.73763 15.7642 9.73763 14.7772C9.73763 13.7866 10.1136 12.8598 10.7995 12.1604C11.4854 11.4609 12.3941 11.0774 13.362 11.0774C14.1732 11.0774 14.9461 11.3473 15.5763 11.8479C16.2099 11.3473 16.9793 11.0774 17.7941 11.0774C18.7619 11.0774 19.6707 11.4609 20.3565 12.1604C21.0389 12.8598 21.4184 13.7866 21.4184 14.7772C21.4184 15.7642 21.0389 16.691 20.3565 17.3905L16.2239 21.6015C16.0463 21.7826 15.813 21.8749 15.5762 21.8749Z" fill="white"/>
<path fill-rule="evenodd" clip-rule="evenodd" d="M28.5594 44.8235C28.2217 44.8235 27.9083 44.6318 27.7482 44.3264L20.3254 29.9956L16.0291 35.8507C15.8551 36.085 15.5835 36.227 15.2945 36.227H6.25954C5.7547 36.227 5.34392 35.808 5.34392 35.2932C5.34392 34.7784 5.75475 34.3595 6.25954 34.3595H14.8347L19.7229 27.6985C19.9109 27.4428 20.2138 27.3008 20.5271 27.3256C20.8405 27.3505 21.119 27.5351 21.2652 27.8192L28.4582 41.7018L30.4845 36.738C30.6272 36.3901 30.9614 36.1628 31.3305 36.1628H35.3761L39.8187 29.1467C39.9858 28.8804 40.2782 28.7171 40.5881 28.7171C40.9014 28.7171 41.1904 28.8804 41.3575 29.1467L44.8182 34.6786L51.482 22.3966C51.6422 22.0984 51.9486 21.9138 52.2828 21.9138H52.2863C52.6205 21.9138 52.9304 22.1055 53.0871 22.4037L60.7013 36.8581L62.5605 34.8875C62.7345 34.7029 62.9713 34.5999 63.222 34.5999H73.7329C74.2378 34.5999 74.6486 35.0189 74.6486 35.5337C74.6486 36.0521 74.2377 36.4674 73.7329 36.4674H63.6124L61.1509 39.0772C60.949 39.2902 60.6565 39.3967 60.3675 39.3541C60.0751 39.3151 59.8244 39.134 59.6851 38.8712L52.2694 24.7968L45.6752 36.9506C45.5186 37.2382 45.2261 37.4228 44.9023 37.4335C44.582 37.4441 44.2756 37.2808 44.1016 37.0003L40.5782 31.3725L36.6405 37.5933C36.4699 37.8596 36.1809 38.0229 35.8711 38.0229H31.9403L29.3987 44.2401C29.2629 44.5739 28.9496 44.7975 28.5945 44.8153H28.5527L28.5594 44.8235Z" fill="white"/>
<path fill-rule="evenodd" clip-rule="evenodd" d="M7.17915 53.995H72.8208V7.325H7.17915V53.995ZM73.737 55.8626H6.26023C5.7554 55.8626 5.34461 55.4436 5.34461 54.9288V6.38821C5.34461 5.87337 5.75544 5.45443 6.26023 5.45443H73.737C74.2418 5.45443 74.6526 5.87341 74.6526 6.38821V54.9288C74.6526 55.4437 74.2418 55.8626 73.737 55.8626Z" fill="white"/>
</svg>
