<svg width="65" height="75" viewBox="0 0 65 75" fill="none" xmlns="http://www.w3.org/2000/svg">
<path d="M63.8049 10.3302C63.7273 9.93832 63.3702 9.65615 62.9665 9.70318C52.1601 10.8789 41.2296 7.39885 33.0476 0.188106C32.7526 -0.0627021 32.3178 -0.0627021 32.0384 0.188106C28.5295 3.26051 24.5858 5.64319 20.3318 7.30485C14.6026 9.53083 8.29926 10.3616 2.11953 9.70318C1.71584 9.65615 1.35874 9.92264 1.2811 10.3302C-3.29919 30.8343 3.81192 62.2947 32.2255 74.9295C32.4273 75.0235 32.6602 75.0235 32.862 74.9295C39.1502 72.0452 48.1092 66.4961 55.0958 56.3696C68.0296 37.6372 65.0326 16.3968 63.806 10.3302H63.8049ZM53.8213 55.4757C47.145 65.1319 38.6209 70.5082 32.5346 73.3453C5.70509 61.2283 -1.56074 31.5225 2.64653 11.3334C13.437 12.321 24.2592 8.8724 32.5346 1.81836C40.7946 8.8723 51.6322 12.3212 62.4227 11.3334C63.6803 18.0269 65.9629 37.9031 53.8213 55.4757ZM57.144 16.8512C52.0359 16.6788 47.0362 15.6442 42.2695 13.7945C39.0091 12.5248 35.8727 10.8789 32.9692 8.88805C32.7053 8.71562 32.3637 8.71562 32.0998 8.88805C24.9732 13.7788 16.5575 16.569 7.92538 16.8512C7.53723 16.8512 7.21117 17.1647 7.18012 17.5566C6.37275 26.6955 7.18012 40.1454 15.6264 52.3879C19.8806 58.5484 25.4391 63.5017 32.1773 67.1545C32.4102 67.2799 32.6741 67.2799 32.907 67.1545C52.3147 57.1061 59.9541 35.0821 57.8893 17.5566C57.8582 17.1647 57.5322 16.8512 57.144 16.8512ZM48.1698 51.4939C44.133 57.3252 38.885 62.059 32.5352 65.5703C14.2762 55.9298 6.90109 35.1442 8.67085 18.3872C17.1638 17.9796 25.4552 15.2208 32.5352 10.4711C39.6152 15.2051 47.9065 17.9797 56.3996 18.3872C57.0982 27.2438 56.1503 39.9407 48.1698 51.4939ZM43.838 32.7304H34.988L37.7983 19.7506C37.9846 18.9825 36.9443 18.4495 36.4474 19.0765L20.6568 38.0758C20.2531 38.5304 20.5791 39.3455 21.2002 39.3611L28.9323 39.8784L27.4107 46.3211L25.0817 56.1497C24.8799 56.9334 25.9512 57.482 26.4481 56.8237L44.4427 34.0162C44.8464 33.5302 44.4738 32.7151 43.8372 32.7465L43.838 32.7304ZM27.3955 53.077L30.6404 39.3297C30.687 39.1102 30.6404 38.8751 30.5162 38.687C30.3765 38.4989 30.1746 38.3892 29.9418 38.3735L22.8151 37.8875L35.6088 22.51L33.2643 33.3419C33.1557 33.8122 33.5438 34.2981 34.0251 34.2981H42.223L27.3953 53.0927L27.3955 53.077Z" fill="white"/>
</svg>
